<?xml version="1.0" encoding="utf-8"?>
<!-- Generator: Adobe Illustrator 22.0.1, SVG Export Plug-In . SVG Version: 6.00 Build 0)  -->
<svg version="1.1" id="レイヤー_1" xmlns="http://www.w3.org/2000/svg" xmlns:xlink="http://www.w3.org/1999/xlink" x="0px"
	 y="0px" viewBox="0 0 400 400" style="enable-background:new 0 0 400 400;" xml:space="preserve">
<style type="text/css">
	.st0{fill:#FFFFFF;}
	.st1{font-family:'Courier';}
	.st2{font-size:53.8242px;}
	.st3{letter-spacing:6;}
	.st4{fill:none;stroke:#FFFFFF;stroke-miterlimit:10;}
	.st5{font-size:23.6675px;}
	.st6{letter-spacing:2;}
</style>
<g>
	<text transform="matrix(1 0 0 1 86.3827 311.5496)" class="st0 st1 st2 st3">HYAKKA</text>
</g>
<g>
	<path class="st4" d="M9.2,231.8c-0.2-1-0.3-2-0.3-3c1-39.5,14.4-78.7,41-111.3c65.3-80,185.2-90.1,267.9-22.6
		c49.2,40.2,74.2,98.8,72.5,156.6"/>
	<path class="st4" d="M9.2,231.8c-0.2-0.8-0.3-1.5-0.3-2.3c0-0.8,0-1.6,0-2.3l0.1-4.7c0-1.6,0.2-3.1,0.3-4.7
		c0.1-1.6,0.2-3.1,0.4-4.7c0.4-3.1,0.6-6.2,1.2-9.3l0.7-4.7l0.9-4.6c2.4-12.3,6.2-24.4,11.2-36c4.9-11.6,11.3-22.6,18.5-32.9
		c7.3-10.3,15.7-19.8,24.9-28.4c18.5-17.2,40.7-30.4,64.6-38.6c23.9-8.3,49.5-11.5,74.8-9.8c25.2,1.7,50.1,8.4,72.9,19.4
		c22.7,11.1,43.3,26.5,60.2,45.2c4.3,4.6,8.2,9.6,12.1,14.5l5.5,7.7c0.9,1.3,1.7,2.6,2.6,4l2.5,4c6.5,10.8,12.1,22.1,16.5,33.9
		l3,8.9c0.9,3,1.7,6.1,2.6,9.1c0.2,0.8,0.4,1.5,0.6,2.3l0.5,2.3l1,4.6l0.5,2.3l0.3,1.2l0.2,1.2l0.7,4.7l0.7,4.6
		c0.2,1.6,0.3,3.1,0.5,4.7c0.3,3.1,0.7,6.2,0.8,9.4l0.2,4.7c0,1.6,0.2,3.1,0.1,4.7l-0.2,9.4c0.1-25-4.3-50.1-13.4-73.3
		c-4.6-11.6-10.2-22.8-16.8-33.3l-2.5-3.9c-0.9-1.3-1.6-2.6-2.6-3.9l-5.5-7.5c-3.9-4.8-7.8-9.7-12.1-14.2l-3.2-3.4l-3.4-3.2
		l-3.4-3.2l-1.7-1.6l-1.8-1.5l-7.1-6.1l-7.4-5.7c-10-7.4-20.7-13.8-31.9-19.2c-22.3-10.8-46.7-17.3-71.5-18.9
		c-24.7-1.7-49.8,1.4-73.3,9.4c-11.7,4-23.1,9.1-33.8,15.4c-10.7,6.3-20.8,13.6-30,21.9c-18.4,16.6-33.5,37.1-43.7,59.8
		c-5.1,11.3-9.2,23.2-11.9,35.4l-1,4.6l-0.8,4.6c-0.6,3.1-0.9,6.2-1.4,9.3c-0.2,1.5-0.3,3.1-0.5,4.7c-0.1,1.6-0.4,3.1-0.4,4.7
		l-0.3,4.7c0,0.8-0.1,1.6-0.1,2.3C9,230.3,9,231.1,9.2,231.8z"/>
</g>
<g>
	<g>
		<path class="st0" d="M168.4,100.5c-5.1,0.2-9.9,0.6-14.4,1.1c-4.4,0.5-8.6,1.2-12.4,2c-7.8,1.5-13.2,3.2-16.5,5.1
			c-3.3,1.8-5.9,2.7-7.7,2.7c-1.7,0-2.6-0.8-2.6-2.4c0-1.6,1.3-4,3.9-7.3c2.5-3.1,4.7-4.7,6.5-4.7c0.6,0,1.4,0.2,2.3,0.5
			c1,0.3,2,0.5,2.9,0.5c0.9,0,2.8-0.1,5.6-0.3c7.7-0.7,15-1.2,22.1-1.5c7.1-0.3,14-0.5,20.6-0.5c13.2,0,24.9,0.3,35.2,0.9
			c10.4,0.6,16.5,0.9,18.3,0.9h5c1-0.2,1.6,0.1,1.9,0.8c0.3,0.7,0.2,1.6-0.2,2.6c-0.4,1.1-1,2.2-2,3.6c-1,1.3-2.1,2.5-3.4,3.5
			c-2,1.1-3.7,1.7-5,1.7c-1.5,0-4.8-1.1-9.8-3.3c-5-2.3-10.7-3.9-16.9-4.8c-6.2-0.9-14.2-1.2-23.7-1.1c-0.8,4.4-1.5,8.4-2.2,11.8
			c-0.7,3.4-1.2,6.4-1.6,8.9c6.5-0.2,12.2-0.2,16.8,0.1c4.7,0.3,8.6,0.6,11.7,1.1c3.1,0.5,5.5,1.1,7.3,1.9c1.7,0.8,2.9,1.5,3.5,2.2
			c0.8,0.8,1.2,1.7,1.2,2.7c0,1-0.4,2.9-1.1,5.6c-0.4,1.3-0.7,2.8-0.9,4.4c-0.2,1.6-0.4,3.4-0.6,5.3c-0.1,3.7-0.3,11.5-0.5,23.4
			c0,4.6-0.6,8-1.8,10.1c-1.2,2.1-3.2,3.2-5.9,3.2c-1.1,0-2.3-0.2-3.6-0.5c-3.2-0.7-8.5-1.1-15.7-1.1c-3.5,0-7.1,0.1-10.7,0.2
			c-3.6,0.2-7.1,0.4-10.7,0.8c-7.3,0.6-11.6,1.3-13.1,2c-1.6,0.8-2.9,1.2-3.9,1.2c-2.3,0-4.1-1.3-5.2-4c-1.2-2.7-1.7-6.6-1.7-11.7
			l0.5-14.4c0.1-2.9,0.2-5.8,0.2-8.7c0-2.9,0.1-5.6,0.1-8.2c0-5.3,0.4-9,1.2-10.9c0.9-1.9,2.9-3.1,6-3.5c3.1-0.4,10.1-0.9,20.9-1.4
			C168.8,113.3,168.8,106.5,168.4,100.5z M147,152.8c-0.3,6.6-0.5,11.3-0.5,13.9c0,2.7,0.6,4.7,1.8,6c1.2,1.4,3.9,2.1,8,2.1
			c4.2,0,11.9-0.2,23.1-0.5c11.2-0.4,17.6-0.7,19.3-0.9c1.6-0.1,2.8-0.7,3.6-1.7c0.8-1,1.4-3,1.7-5.9c0.4-2.9,0.5-7.8,0.5-14.5
			c-3.8-0.1-7.6-0.2-11.4-0.2c-3.8,0-7.6,0-11.4,0c-3.8,0-8.6,0.1-14.4,0.4C161.7,151.9,154.8,152.3,147,152.8z M204.7,146
			c0-9.2-0.4-14.5-1.1-15.9c-0.8-1.6-2.1-2.8-3.9-3.5c-1.8-0.9-6-1.4-12.7-1.4c-3.2,0-6.5,0.1-9.7,0.2c-3.3,0.2-6.5,0.3-9.7,0.5
			c-6.2,0.4-10.4,1-12.5,1.7c-1.7,0.4-3.3,1.5-4.8,3.3c-1.3,1.6-2.1,4.4-2.4,8.3c-0.2,3.8-0.4,6.4-0.5,7.7
			c8.6-0.4,17.6-0.7,27.1-0.9C183.9,146,194,145.9,204.7,146z"/>
	</g>
	<g>
		<path class="st0" d="M147.4,218.4c-2,1.3-4,2.5-6,3.6c-2,1.1-4,2.2-6,3.2c-4.1,1.8-6.9,2.7-8.2,2.7c-0.7,0-1.5-0.2-2.3-0.6
			c-0.8-0.4-1.6-0.9-2.3-1.4c-0.7-0.6-1.3-1.1-1.7-1.7c-0.5-0.6-0.7-1.2-0.7-1.7c0-1.9,2.4-3.2,7.1-3.8c3.2-0.4,6.4-1.2,9.5-2.3
			c3.1-1.1,6.2-2.5,9.4-4.2c6.2-3.6,10.1-6.6,11.6-9.1c1-1.8,1.8-2.9,2.4-3.3c0.6-0.4,1.1-0.4,1.4-0.1c0.4,0.4,0.6,0.9,0.8,1.6
			c0.2,0.7,0.3,1.3,0.5,1.7c0,2.1-2.8,5.5-8.3,10.1l0.5,37.5c0,6.9-0.4,11.3-1.2,13.1c-0.8,1.8-1.8,2.7-2.9,2.7
			c-1.1,0-2-0.5-2.6-1.6c-0.7-1.1-1-2.5-1-4.3l0.5-32.3C147.9,223.1,147.7,219.8,147.4,218.4z M188.1,220.1
			c4.8-0.6,10.2-2.8,16.2-6.6c1.9-1.2,3.4-1.8,4.4-1.8c1,0,2.1,0.6,3.3,1.7c1.2,1.1,1.8,2.5,1.8,4.2c0,1.7-1.2,3.1-3.6,4.1
			c-2.3,1-9.9,1.8-22.7,2.4c-0.2,1.7-0.4,3.4-0.5,5.1c-0.1,1.7-0.2,3.4-0.2,5.1c0,6.4,1.3,10.6,3.9,12.4c2.5,1.8,7.3,3.5,14.4,5
			c6.9,1.5,13.6,2.3,20,2.3c6.4,0,12.3-1.6,17.8-4.7c2.5-1.5,4.1-2.3,4.6-2.3c0.6,0,0.8,0.3,0.8,0.8c0,1.1-1,3.1-2.9,5.9
			c-1.8,2.9-4.2,5.5-7,7.7s-5.7,3.3-8.4,3.3c-3.6,0-9.9-1.2-18.9-3.5c-4.4-1.1-8.3-2.3-11.7-3.6c-3.4-1.3-6.3-2.5-8.7-3.9
			c-4.8-2.8-7.8-5.3-8.9-7.4c-1.2-2.2-1.8-5.8-1.8-10.7c0-8.6,0-15.2,0.2-20c0.1-4.8,0.3-7.7,0.5-8.7c0.5-2,1.8-3,3.9-3
			c1.6,0,3,0.7,4.1,2.2c1.1,1.5,1.7,3,1.7,4.6c0,1.4-0.3,2.6-0.8,3.6c-0.2,0.4-0.5,1.1-0.8,2C188.5,217.3,188.3,218.6,188.1,220.1z
			 M210.3,177.2c8.9-0.3,14.6-0.5,17.1-0.5c2.5,0,3.8,0.5,3.8,1.4c0,1-0.7,2.4-2.1,4.3c-0.9,1.4-2,2.2-3.2,2.5
			c-1.3,0.3-2.7,0.2-4.3-0.1c-1.6-0.3-3.5-0.7-5.6-1.1c-2.1-0.5-4.4-0.7-7-0.7c-3,11.1-5.4,16.6-7.3,16.6c-0.9,0-1.4-1-1.4-2.9
			c0-1,0-2.1,0.2-3.4c0.1-1.3,0.3-2.7,0.5-4.3l1.5-11.8c0-2.3,2.2-14.3,3.2-14.2c1.2,0,2.7,0.5,4.4,1.5
			C211.8,165.7,210.8,175.5,210.3,177.2z"/>
	</g>
	<g>
		<path class="st0" d="M297.9,141.9c2.8,0,3.9,2.6,2,5c-1.2,1.5-2.9,2.8-4.6,3.6c-3.1,1.6-6.4,2.7-9.6,4.1c-1,0.5-2.1,1.4-2.5,2.4
			c-3.7,9.3-9.5,17-16,24.3c-3.2,3.6-6.5,7.3-10,11.2c2.5-0.5,4.6-1.3,6.6-1.3c1.2,0,2.3,1.1,3.4,1.7c-0.8,1-1.4,2.5-2.4,2.9
			c-2.6,1.1-5.3,1.8-7.9,2.7c-2.5,0.9-5,1.9-6,5.1c0.6-0.3,1.3-0.6,1.9-1c7-4.2,14.4-6.9,22.3-8.1c0.7-0.1,1.7-0.6,1.9-1.2
			c1.8-4.1,5-6.2,8.8-7.6c2.1-0.8,4.4-1.3,6.6-1.9c3.6-1,7-2.5,9.1-6.2c3.2,3.1,3,5.7-1.2,11.1c2.3-0.1,4.3-0.1,6.1-0.2
			c-0.7,2.9-1.6,3.6-11.4,8.6c3.6-0.2,6.4-1,9-2.9c1.3-1,2.7-2.2,4.2-2.4c1.4-0.2,3.6,0.1,4.3,1.1c1.2,1.8-0.6,3.1-2.1,4.1
			c-0.3,0.2-0.6,0.4-1,0.6c0.8,0.7,1.9,1.2,2.2,2c0.4,1.2,0.6,2.8,0.1,3.8c-0.4,0.8-2.3,1.6-3.1,1.3c-1.9-0.6-3.6-1.9-5.4-2.9
			c-2.6-1.4-5.1-2.7-8-3.7c4.2,3.5,8.7,6.7,10.7,12.6c-3.3-0.5-6.4-1-10.1-1.6c1.7,2.9,3.2,5.2,4.5,7.6c1.6,3,0.1,6.6-3.5,8.5
			c-1.6-4.7-5.5-7-8.9-9.9c-4.4-3.7-8.5-7.7-10.1-13.7c-0.4-1.7-0.7-3.4-1.2-5.4c-8.1,0.5-15.4,3.8-22.7,7.5
			c4.4-0.3,8.8-0.4,12.5,2.1c1.5,0.9,2.7,2.5,3.5,4c0.4,0.8,0.1,3-0.6,3.4c-1,0.7-2.6,0.6-3.8,0.3c-0.8-0.1-1.4-1.1-2.1-1.7
			c-3-2.4-6.3-4-10.1-4.4c-3.6-0.3-5.9,0.9-7.4,4.6c-5.6,13.9-7.4,28-2.1,42.1c0.1,0.3,0.1,0.7-0.4,1.4c-0.6-0.9-1.4-1.7-1.9-2.6
			c-3.5-6.5-3.4-13.7-2.5-20.9c0.6-4.6,1.1-9.3,1.4-13.9c0.4-5.2-0.7-10.1-2.8-14.7c-2.8-6.2-5.8-7.4-12.1-4.7
			c-1.7,0.7-3.4,1.6-5.1,2.4c-1.9,0.9-4.1,2.1-5.6-0.2c-1.5-2.4,0.4-4,1.9-5.6c-2.7-2-2.7-2.2-1.2-5.6c0.2-0.4,0.1-1,0-1.4
			c-0.4-1.9-0.3-3.9,1.5-4.6c1.2-0.5,3.2,0,4.2,0.8c1.8,1.4,3.2,3.4,4.8,5.2c0.4,0.4,0.9,0.7,1.6,1.2c-0.2-2-0.5-3.7-0.6-5.5
			c-0.1-2,0.5-3.8,2.6-4.3c2.2-0.6,3.2,1,3.8,2.8c0.4,1.2,0.4,2.5,0.4,3.8c0,1.8-0.3,3.7-0.3,5.5c0,1.1,0.3,2.5,1,3.1
			c4.4,4,6.6,9.3,8,15.5c1.9-3.7,3.3-7.4,5.5-10.5c3.9-5.5,8.1-10.8,12.4-15.9c2.3-2.8,3-4.4,1.4-7.6c-1.1-2.2-2.6-4.2-4.1-6.1
			c-1.7-2.2-1.9-4.1-0.4-5.6c1.5-1.4,3.6-1.2,5.2,0.8c1.4,1.8,2.5,3.9,4.1,5.8c-0.7-2.1-1.5-4.1-2.1-6.2c-0.6-1.9-1.1-3.8-1.3-5.8
			c-0.1-0.9,0.7-2.5,1.4-2.7c0.9-0.2,2.4,0.3,3,1c2.8,3.4,3.3,7.6,2.6,12.1c-0.2,1.1-0.4,2.2-0.4,3.3c6.5-8.8,12.2-17.9,14-29
			c1-5.7,0.3-11.1-3.2-15.6c-3.5-4.6-8.2-5.9-13.6-3.8c-3.7,1.4-6.7,3.8-9.1,7.1c4,4.1,4.5,8.6,1.8,13.9c-1.8,3.6-3.4,7.3-1.5,11.3
			c0.6,1.3,1.4,2.5,2.1,3.7c-4,2.4-8.5,0-10.8-6.1c-1.9,1.8-3.7,3.4-5.7,5.2c-2-2-1.9-5.1-2.2-8c-0.2,0-0.5,0-0.7,0.1
			c-0.1,2.5-0.3,5.1-0.4,7.6c-0.1,1.2,0,2.5-0.2,3.7c-0.4,2.1-1.6,3.5-3.8,3.5c-2.2,0-3.2-1.4-3.7-3.4c-0.1-0.3-0.1-0.7-0.1-1.1
			c-1.1,0-2.2,0.1-3.2,0c-1.8-0.1-2.8-1.3-3.2-3.1c-0.3-1.9,0.5-3.4,2.1-4.1c2-0.9,4.1-1.5,6.2-2.2c1.2-0.4,2.4-0.9,3.5-1.7
			c-2,0.1-4,0.2-6,0.3c-0.1-0.3-0.1-0.5-0.2-0.8c1.5-1.6,2.9-3.2,4.8-5.3c-4.4,0.2-7.1-1.5-8.5-5.2c-0.8-2.1-0.4-3.6,1.2-5.7
			c3.6,3.9,7.2,2,10.9-0.4c3.1-2,6.3-3.7,9.7-5.1c2.2-0.9,4.7-0.6,6.5,1.7c5-5.5,10.4-10.3,18-8.6c7.8,1.7,10.1,8.5,11.5,16.5
			c1-1.3,1.6-2.1,2.2-3c2.7-3.6,5.7-6.7,10.1-7.6c2.1-0.4,4.3-0.8,5.4,1.8c0.8,1.9-0.1,4.1-2.7,5.6c-4.3,2.6-8.7,4.9-12.9,7.4
			c-1.1,0.7-1.9,2-2.9,3.1c0.2,0.2,0.4,0.4,0.5,0.6 M278.9,196.9c0.3,1.6,0.3,3,0.7,4.3c1.4,4.9,4.4,8.6,8,11.9
			c3.5,3.1,6.9,6.2,10.4,9.3c1.8-2.2,1.6-4.1-0.7-6.1c-0.4-0.4-1-0.9-1-1.3c0.1-3.5-1.9-4.5-3.9-4.4c-1.8-2.3-2.9-4.6-4.7-5.8
			c-1.4-0.9-2.3-1.7-2.7-3.4C284.3,198.1,282.4,196.8,278.9,196.9z M230.2,139.2c-0.2,0.2-0.4,0.5-0.6,0.7c1,1.1,1.8,2.6,3,3.3
			c2.9,1.8,9.3,0.5,11.5-2.4c1.1-1.5,2-1.7,3.4-1c0.5,0.2,1.1,0.3,1.7,0.4c1.9,0.2,3.6-0.5,4.4-2.4c0.5-1.2,0.8-3.5,0.3-3.8
			c-1.4-0.8-3.3-1.4-4.7-0.9c-2.7,1-5.4,2.6-7.9,4.2C237.8,139.6,234.2,140.9,230.2,139.2z M256.5,160.1c-1.9-4.8-0.7-9,1.2-13.2
			c0.7-1.4,1.3-2.9,1.6-4.5c0.7-3.4-0.5-6.1-2.5-6.8c-1.5,2-2.8,3.9-4.3,5.6c-1.1,1.2-1.5,2.4-0.7,3.8c0.4,0.8,1.1,1.5,1.6,2.1
			c-4.3,3.5-4.3,4.3-1,7.1C251.6,157.9,252.8,159.7,256.5,160.1z M301.9,180.2c-3.4,4.6-8,5.2-12.3,6.7c-2.3,0.8-4.6,1.7-6.8,2.9
			c-1.7,1-3.5,2.3-3.4,4.8c3.5,1.2,4.8-0.9,7.8-2.1c3.2-1.3,6.6-2.6,9.7-4.2c0.6-0.3,1-0.9,1.5-1.2
			C301.2,185.8,302.1,184.4,301.9,180.2z M303.4,208.7c-4.9-6-10.6-9.7-17.8-11.4c1,3,1.3,5.9,4.4,6.9c0.8,0.3,1.3,1.5,2,2.1
			c0.5,0.5,1.1,1.1,1.7,1.2C296.8,207.9,299.8,208.2,303.4,208.7z M235.3,160.5c-0.2,0.6-0.5,0.9-0.4,1.2c0.1,1.2,0.2,2.5,0.5,3.6
			c0.1,0.3,1.6,0.5,1.7,0.3c0.7-1,1.4-2.2,1.6-3.3c0.4-2.6,0.5-5.2,0.7-7.8c-3.1,1.2-6.2,2.3-9.2,3.6c-0.8,0.4-1.2,1.6-1.9,2.4
			c1,0.4,1.9,1.2,2.9,1.2C232.4,161.7,233.7,161,235.3,160.5z M288,140.8c2.6-1.1,6.1-2.5,9.5-4.1c1.4-0.7,2.7-1.9,3.9-3
			c0.4-0.4,0.7-1.4,0.5-1.8c-0.2-0.4-1-0.8-1.6-0.8C295.9,131.2,288.8,137.6,288,140.8z M303.4,191.2c-0.1-0.2-0.1-0.4-0.2-0.7
			c-1.8-0.1-3.7-0.7-5.4-0.2c-2.5,0.8-4.7,2.3-7.1,3.5c-0.6,0.3-1.3,0.2-1.9,0.4c-1,0.3-2,0.7-3,1c0.1,0.3,0.2,0.5,0.2,0.8
			C292.3,196.2,298.1,195.1,303.4,191.2z M220.7,190.5c-0.8,0-1.4-0.1-1.9,0.1c-0.9,0.3-2.6,0.9-2.6,1.3c0,1.9,1.6,1.6,2.8,1.5
			c2.5-0.3,4.9-0.7,7.7-1.1c-2.3-2.3-4.4-4.5-6.7-6.5c-0.5-0.4-1.6,0-2.5,0.1c0.1,0.8,0.1,1.9,0.5,2.5
			C218.7,189.1,219.7,189.7,220.7,190.5z M284.5,153.1c3.9-1.8,7.3-3.3,10.6-4.9c1-0.5,2-1,2.8-1.8c0.5-0.5,0.6-1.3,0.9-2
			c-0.7-0.3-1.5-1-2.1-0.8C291.7,145,287.7,148,284.5,153.1z M301.6,198.7c1.3,0.9,3.3,2.5,5.5,3.8c0.6,0.4,1.7-0.1,2.6-0.2
			c-0.1-0.9,0-1.9-0.5-2.5c-0.7-0.9-1.7-1.3-2.7-2.1c1-0.6,2-1,2.7-1.7c0.7-0.6,1-1.5,1.6-2.3c-0.8,0.1-1.8-0.1-2.5,0.3
			C305.8,195.6,303.5,197.4,301.6,198.7z M230.3,195.4c-4.9-1.7-8.9-1.2-12.6,1.7c-0.7,0.6-1,1.8-1.5,2.7c0.9,0,1.9,0.3,2.7,0
			C222.5,198.5,226,197.1,230.3,195.4z M249.1,144.6c-3.7,3.5-5.5,9.1-4.4,12c1.5-0.8,3.1-1.6,4.6-2.3c-1.8-3.3-1.7-4,0.8-7.4
			C249.8,146.1,249.5,145.4,249.1,144.6z M248.3,142.3c-3.7-0.9-5.3,3.4-8.4,3.6c-1.1,0.1-2.2,2.8-3.8,5
			C241.4,149.2,245.5,147.2,248.3,142.3z M264.9,179.3c1.3-3.9-0.2-6.9-2.1-9.7c-0.8-1.2-1.9-2.4-4-1.3
			C260.8,172,262.7,175.5,264.9,179.3z M268.7,173.9c0.5-4.6,0.5-8.5-1.1-12.2c-0.3-0.7-1.2-1.2-1.8-1.7c-0.2,0.9-0.7,1.9-0.5,2.7
			C266.3,166.2,267.4,169.7,268.7,173.9z M256.2,206c3.1,1.8,6.1,3.5,9.1,5.1c0.7,0.4,1.6,0.2,2.4,0.3c-0.4-0.8-0.5-1.8-1.1-2.3
			C263.7,206.5,260.2,205.7,256.2,206z M231,193.5c0.3-0.1,0.7-0.1,1-0.2c0.1-2.7,0.3-5.5,0.1-8.2c0-0.7-1.2-1.3-1.8-2
			c-0.4,0.9-1.3,1.8-1.2,2.6C229.5,188.3,230.3,190.9,231,193.5z M265.6,193.9c0-0.2-0.1-0.5-0.1-0.7c-3.4-1.2-8.6,1-10.9,4.6
			C258.4,196.4,262,195.2,265.6,193.9z"/>
	</g>
	<g>
		<text transform="matrix(1 3.662144e-03 -3.662240e-03 1 86.3825 196.0309)" class="st0 st1 st5 st6">Flower</text>
	</g>
</g>
<path class="st0" d="M320.2,295c0-1.3,70.1,0,70.1,0"/>
<path class="st0" d="M8.9,295c0-1.3,70.1,0,70.1,0"/>
</svg>
