<?xml version="1.0" encoding="utf-8"?>
<!-- Generator: Adobe Illustrator 22.0.1, SVG Export Plug-In . SVG Version: 6.00 Build 0)  -->
<svg version="1.1" id="レイヤー_1" xmlns="http://www.w3.org/2000/svg" xmlns:xlink="http://www.w3.org/1999/xlink" x="0px"
	 y="0px" viewBox="0 0 400 400" style="enable-background:new 0 0 400 400;" xml:space="preserve">
<style type="text/css">
	.st0{fill:#FFFFFF;}
</style>
<g>
	<path class="st0" d="M355.7,179.2c0,0.4,0,0.8,0,1.2c0,0.3,0,0.5-0.1,0.8c-0.1,0-0.1,0-0.1,0C355.5,180.5,355.6,179.9,355.7,179.2z
		"/>
	<g>
		<g>
			<path class="st0" d="M208,81.2c1.5,1.7,1.8,3.2,0.9,4.4c-1,1.3-3.4,1.5-7.4,0.6c-3.3-0.8-7.1-1.3-11.2-1.6
				c-4.1-0.3-8.5-0.4-13-0.4c-4.6,0.1-9.2,0.3-14,0.6c-4.8,0.3-9.3,0.7-13.7,1.3c-0.1,1.2-1.1,2.6-2.9,4.4c-8.6,8.4-16.7,23-24.3,44
				c-0.9,2.6-1.7,5.3-2.4,8.3c-0.7,3-1.3,6-1.8,9c-0.5,3-0.9,5.9-1.2,8.6c-0.3,2.7-0.4,5-0.4,6.9c0,4,0.5,5.9,1.5,5.8
				c1-0.1,1.8-1.9,2.3-5.2c0.3-1.5,0.9-3.7,1.8-6.6c1-2.8,2.2-5.9,3.8-9.2c1.5-3.3,3.2-6.5,5.1-9.6c1.9-3.2,3.8-5.9,5.9-8.2
				c3-3.5,5.9-6.3,9-8.6c3-2.2,6.5-3.7,10.3-4.3c1-0.1,2.3,0.1,3.9,0.6c1.5,0.5,3.2,1.3,4.9,2.2c1.7,1,3.4,2.1,4.9,3.5
				c1.5,1.4,2.8,2.8,3.9,4.3c1.3,1.9,2.3,4.1,3.1,6.6c0.8,2.4,1.3,5.3,1.5,8.7c0.3,3.3,0.3,7.2,0,11.7c-0.3,4.4-0.8,9.6-1.5,15.5
				c-0.9,6.7-3.1,13.2-6.6,19.5c-3.5,6.3-8.2,11.5-14.1,15.6c-1.8,1.2-3.7,2.1-5.8,2.7c-2.1,0.6-4.1,1-6.3,1.2
				c-2.1,0.1-4.1,0-6.1-0.5c-1.9-0.5-3.7-1.2-5.2-2.2c-1.9-1.3-3.4-2.5-4.4-3.7c-0.6,1.2-1.6,1.3-3,0.3s-3.1-3.3-5.1-7
				c-1.5-3.1-3.1-6.1-4.5-9.1c-1.5-3-2.7-6.1-3.7-9.4c-1-3.3-1.7-6.8-2.1-10.4c-0.5-3.7-0.5-7.7-0.1-12.3
				c0.9-11.3,3.4-22.2,7.4-32.5c4.1-10.4,9.2-20.2,15.3-29.6c1.4-2.2,2.6-4.1,3.7-5.7c1-1.6,1.9-2.9,2.5-4c-5.3,0.9-10.9,2-16.9,3.4
				c-6,1.4-11.9,2.8-17.7,4.3c-5.8,1.5-11.2,3.2-16.3,4.8c-5.1,1.7-9.4,3.2-12.8,4.6c-2.6,1.2-4.8,2-6.7,2.4c-1.9,0.5-3.5,0.5-5,0.3
				c-1.5-0.3-2.9-0.8-4.2-1.7c-1.4-0.9-2.8-2.1-4.3-3.7c-2.4-2.4-3.4-3.9-2.9-4.2c0.5-0.4,2.1-0.1,4.6,1c1.9,0.6,4.7,0.9,8.2,0.8
				c3.5-0.1,7.4-0.9,11.5-2.3c7.5-2.8,15.9-5.4,25.4-7.7c9.5-2.3,18.9-4.3,28.3-6.1c9.4-1.7,18.3-3.1,26.7-4.1
				c8.4-1,15.5-1.4,21.1-1.4c3.1,0,5.7-0.1,7.7-0.2c2.1-0.1,4.1-0.4,6-1c2.1-0.3,4.8-0.1,8.1,0.5C203.1,77.6,205.8,79,208,81.2z
				 M154.6,202.5c2.1-1.9,3.9-3.9,5.5-5.9c1.6-2,3-4.1,4.1-6.5c-0.4-0.5-0.8-1.2-1.4-2c-0.5-0.8-1.3-2-2.3-3.4
				c-1.3-1.5-2.3-3.3-3-5.2c-0.7-1.9-1.2-3.6-1.4-5c-0.4-2.4-1.9-4.5-4.6-6.3c-2.7-1.7-5.9-2.7-9.5-2.8c-1.3,0-2.7,0.1-4.2,0.4
				c-1.5,0.3-3,0.7-4.4,1.4c-1.4,0.6-2.7,1.4-3.9,2.2c-1.2,0.8-2.1,1.8-2.7,3c-0.5,0.9-0.9,1.9-1.3,3.1c-0.3,1.2-0.5,2.4-0.7,3.9
				c-0.3,5.5,0.2,9.8,1.4,12.9c0.8,2.3,1.4,4.1,1.7,5.4c0.3,0.5,0.5,1,0.8,1.4c0.3,0.4,0.6,0.9,1,1.3c3.3,4.5,7.3,6.9,12,7.2
				C146.3,208,150.6,206.3,154.6,202.5z M149.8,130.8c-5.5,3.7-10.1,8.5-13.8,14.3c-3.7,5.8-6.4,11.8-8.2,17.9
				c3.6-2.7,7.5-4.1,11.6-4.2c6.2-0.3,11.7,1.4,16.6,5c4.9,3.6,8.6,9.1,11.2,16.4c0.1,0.3,0.2,0.6,0.3,1c0.1,0.4,0.2,0.7,0.3,1
				c1.4-4.1,2.4-9.1,2.9-14.9c0.4-4.1,0.6-7.7,0.8-10.8c0.1-3.1,0.1-5.8-0.1-8.2c-0.2-2.4-0.6-4.5-1.2-6.4c-0.6-1.9-1.3-3.6-2-5.3
				c-2.2-4.2-4.9-6.9-8-8C156.9,127.4,153.5,128.2,149.8,130.8z"/>
		</g>
	</g>
	<g>
		<g>
			<path class="st0" d="M302,265c1.2,3,1.3,5.1,0.3,6.6c-1,1.4-3.1,2.7-6.3,3.9c-5.4,1.9-10.5,3.4-15.1,4.5
				c-4.7,1.1-9.3,1.9-13.7,2.3c-4.4,0.4-8.9,0.6-13.3,0.5c-4.4-0.1-9.2-0.5-14.2-1.2c-4.8-0.6-8.7-2.8-11.9-6.4
				c-3.2-3.6-5-8.7-5.5-15.2c-0.3-3.3,0-6.9,0.7-10.8c0.7-3.9,2-8.8,4-14.9c1.3-3.7,2.2-6.9,2.7-9.6c0.5-2.7,0.6-5.5,0.4-8.5
				c-0.1-2.4-0.5-4.2-1.2-5.3c-0.6-1.1-1.4-1.7-2.3-1.8c-0.9-0.1-1.9,0.2-3,1c-1.1,0.8-2.2,1.8-3.2,3.1c-0.4,0.6-0.8,1-1.2,1.2
				c-3.1,5.7-6,11.3-8.9,16.8c-2.8,5.5-6.2,12-10,19.3c-2.2,4.2-3.9,7.8-5.1,10.8c-1.2,3-2,4.8-2.2,5.4c-0.8,2.7-1.4,5-1.8,6.9
				c-0.5,1.9-0.9,3.6-1.4,5.1c-1.4,3.9-2.4,5.8-3.1,5.8c-0.6,0-1.5-2-2.5-6c-1.8-6-1.5-11.1,1-15.2c1-1.7,1.7-3.6,2.1-5.9
				c0.4-2.2,0.6-4.6,0.7-7c0.1-2.4,0-4.9-0.2-7.2c-0.2-2.4-0.4-4.5-0.7-6.5c-0.4-3.6-1-6.7-1.7-9.3c-4.9,5.4-10.1,11-15.5,16.8
				c-5.5,5.8-11.1,12-16.9,18.5c-1.7,1.8-3,3.1-4,3.8c-1,0.7-1.7,1-2.1,1c-0.5-0.1-0.7-0.4-0.9-1.1c-0.1-0.6-0.2-1.5-0.2-2.5
				c0.3-3.2,0.6-5.3,1-6.4c0.4-1,0.9-1.9,1.5-2.5c0.6-0.6,1.2-1.5,1.6-2.7c0.4-1.2,1.1-3,2-5.4c0.8-2.2,1.4-3.1,1.9-2.7
				c0.5,0.4,0.7,1.3,0.6,2.7c-0.3,3.7-0.1,5.7,0.5,6c0.6,0.3,2.2-1.3,4.7-4.6c0.6-0.9,1.7-2.2,3.3-4.1c1.5-1.8,3.4-3.9,5.6-6.3
				c2.2-2.4,4.5-5,7-7.7c2.5-2.8,5-5.5,7.6-8.2c-0.5-0.6-1-1.3-1.4-1.8s-0.9-1.1-1.5-1.6c-1.4-1.4-1.8-2.5-1.1-3.2
				c0.7-0.7,2.2-0.3,4.3,1.3c0.4,0.3,0.8,0.6,1.2,1.1c0.4,0.5,0.8,0.9,1.2,1.4c3.5-3.7,6.6-7.1,9.5-10.1c2.8-3,4.9-5.2,6.2-6.5
				c5.1-5.4,10.2-10.5,15.1-15.1c5-4.7,9.1-8.9,12.4-12.6c-9.4,3-17.9,5.8-25.5,8.6c-7.6,2.8-13.4,5.4-17.6,8
				c-5.8,3.3-10.5,4.9-14.2,4.7c-3.7-0.2-6-1.3-7-3.4c-0.6-1.3-0.6-2.4,0.2-3.3c0.8-0.9,2.9-1.5,6.4-1.7c2.2,0,4.3-0.2,6.4-0.7
				c2.1-0.4,4.2-1.1,6.5-1.9c2.2-0.8,4.7-1.9,7.3-3.3c2.6-1.4,5.6-3,8.8-4.9c2.4-1.4,5.5-3.9,9.1-7.3c3.6-3.5,7.4-7.5,11.4-12
				c4-4.5,8-9.3,12.1-14.3c4.1-5,7.8-9.8,11.3-14.5c1.8-2.4,3.3-5,4.4-7.7s1.7-5.6,1.7-8.7c0-1.9,0.5-2.8,1.4-2.5
				c1,0.3,3.2,2.4,6.9,6.6c1.3,1.4,1.6,2.9,1.1,4.5c-0.6,1.6-3,4.3-7.2,8c-1.5,1.4-3.4,3.3-5.7,5.7c-2.3,2.4-4.7,5-7.2,7.9
				c-2.6,2.9-5.2,5.9-7.9,9.1c-2.7,3.2-5.2,6.2-7.6,9.2c-2.4,3-4.5,5.7-6.4,8.1c-1.9,2.4-3.2,4.4-4,5.8c7.3-2.6,12.8-4.7,16.5-6.4
				c3.7-1.7,6.2-3,7.6-4.1c0.5-0.4,1.4-0.8,2.5-1.3c1.2-0.4,2.4-0.9,3.8-1.3c1.4-0.4,2.7-0.7,4.1-1c1.4-0.3,2.5-0.4,3.4-0.4
				c3.1,0.1,4.8,0.4,5,0.9c0.3,0.5-0.2,1.3-1.4,2.4c-2.3,2.6-4.3,4.4-6,5.5c-1.7,1.1-3.2,2-4.6,2.6c-1.8,0.8-3.8,2-6.1,3.6
				c-2.3,1.6-4.5,3.4-6.9,5.5c-5.4,4.4-11.7,10.2-18.8,17.4c-7.1,7.2-15.1,15.6-24,25.3c1.2,2.2,2.2,4.4,3,6.8
				c0.8,2.3,1.3,4.4,1.4,6.2c0,1.4,0.1,2.8,0.2,4.2c0.1,1.4,0.2,3,0.2,4.6c0,1.9,0.3,3.1,1,3.6c0.6,0.5,1.5-0.3,2.7-2.2
				c4.1-7.3,7.9-13.8,11.3-19.3c3.4-5.5,6.5-10.4,9.2-14.7c0-0.8,0.2-1.7,0.6-2.7c0.6-1.9,1.8-3.5,3.5-4.6c1.7-1.2,4.1-1.6,7.3-1.4
				c1.2,0.1,2.3,0.8,3.5,1.9c1.2,1.2,2.1,2.6,2.9,4.4c0.8,1.8,1.3,3.8,1.5,6c0.3,2.2,0.1,4.4-0.4,6.8c-0.9,3.1-1.8,6.3-2.6,9.6
				c-0.8,3.3-1.8,7.1-2.8,11.2c3.2-2.7,6.4-5.7,9.5-9.1c3.1-3.3,6-6.8,8.7-10.4c2.7-3.6,5.1-7.3,7.2-11.1c2.1-3.8,3.8-7.4,5.1-10.9
				c0.4-1,0.6-1.9,0.6-2.7s-0.3-1.5-1-2.3c-0.6-0.8-1.6-1.7-3-2.7c-1.4-1-3.2-2.3-5.7-3.9c-1-0.6-1.4-1.2-1.2-1.7
				c0.3-0.5,1.4-0.6,3.5-0.4c3,0.5,5.6,1.4,7.9,2.6c2.3,1.2,4.2,2.6,5.6,4.1c1.4,1.5,2.3,3,2.7,4.5c0.4,1.5,0.1,2.9-0.8,4.1
				c-1.7,1.9-3.2,4.1-4.6,6.5c-1.4,2.4-3.2,5.6-5.4,9.6c-1.3,2.2-3,4.6-5,7.3c-2.1,2.7-4.4,5.4-7,8.2c-2.6,2.8-5.5,5.4-8.6,8
				c-3.1,2.6-6.4,4.9-9.8,6.9c-0.1,0.9-0.3,1.8-0.4,2.7c-0.1,0.9-0.3,1.9-0.4,2.9c-1,5.9-0.4,10.5,2,13.8c2.4,3.3,7,5.4,14,6.3
				c5.8,0.6,11.6,0.7,17.5,0.2c5.9-0.5,12.1-1.7,18.8-3.5c2.8-0.8,5-1.6,6.7-2.4c1.6-0.8,2.8-1.7,3.6-2.7c0.8-1,1.3-2.1,1.5-3.4
				c0.3-1.3,0.5-2.8,0.8-4.4c0.1-1.2,0.2-2.6,0.2-4.4c0-1.8-0.1-3.7-0.2-5.7c-0.1-2-0.2-3.9-0.3-5.8c-0.1-1.9-0.1-3.4-0.1-4.5
				c-0.1-2.4,0.1-3.4,0.6-2.9c0.5,0.5,0.9,1.4,1.2,2.7c0.1,0.6,0.4,2.1,1,4.3c0.5,2.3,1.1,4.7,1.7,7.4c0.6,2.7,1.3,5.3,2,7.9
				C300.7,261.3,301.4,263.4,302,265z M193.5,142c0.1-1.5-0.1-3.3-0.6-5.4c-0.5-2.1-1.4-4.8-2.7-8.1c-0.9-2.8-0.5-3.2,1.4-1
				c1.3,1.4,2.6,3.9,3.9,7.3c1.3,3.5,2.4,6.9,3.3,10.2c0.8,3.2,1.7,4.4,2.7,3.7c1-0.8,3.1-4.4,6.2-11c1.9-4.1,3.3-5.9,4.1-5.4
				c0.8,0.5,0.1,3.5-2.2,8.9c-0.9,1.9-1.8,4.1-2.6,6.6c-0.8,2.4-1.4,5.5-1.8,9.1c-0.5,4.4-1.3,6.5-2.2,6.5c-1-0.1-2.4-1.4-4.3-4.1
				c-0.5-0.6-1.1-1.6-1.6-2.9c-0.6-1.3-1.1-2.7-1.6-4.3c-0.5-1.6-0.9-3.3-1.3-5C193.7,145.2,193.5,143.6,193.5,142z"/>
		</g>
		<g>
			<path class="st0" d="M142.7,31.1h1.5v11.3h16V31.1h1.5v25h-1.5V43.8h-16v12.3h-1.5V31.1z"/>
			<path class="st0" d="M163.7,38.1h1.6l6.7,16.4l6.2-16.4h1.5L172,58c-0.4,0.9-0.7,1.7-1,2.3c-0.3,0.6-0.7,1.1-1.1,1.4
				c-0.5,0.4-1,0.6-1.7,0.7c-0.6,0.1-1.5,0.1-2.5,0.1v-1.2c1,0,1.7-0.1,2.2-0.2c0.5-0.2,1-0.5,1.5-0.9c0.3-0.3,0.5-0.7,0.8-1.4
				c0.3-0.7,0.6-1.6,1.1-2.8L163.7,38.1z"/>
			<path class="st0" d="M193.4,52.5L193.4,52.5c-0.3,0.5-0.6,1-1,1.5c-0.4,0.5-0.9,0.9-1.5,1.3c-0.6,0.4-1.2,0.7-1.9,0.9
				s-1.5,0.3-2.4,0.3c-1.9,0-3.4-0.4-4.4-1.2c-1-0.8-1.6-2.1-1.6-3.8c0-1.1,0.2-1.9,0.6-2.6c0.4-0.7,1-1.2,1.6-1.6
				c0.6-0.4,1.4-0.7,2.1-0.8c0.8-0.2,1.5-0.3,2.3-0.4l2.1-0.2c1-0.1,1.7-0.2,2.3-0.3c0.5-0.2,1-0.4,1.2-0.6c0.3-0.3,0.5-0.6,0.5-1
				c0.1-0.4,0.1-0.9,0.1-1.6c0-0.5-0.1-0.9-0.3-1.4c-0.2-0.4-0.5-0.8-0.9-1.1c-0.4-0.3-0.9-0.6-1.5-0.8c-0.6-0.2-1.4-0.3-2.3-0.3
				c-1.6,0-2.9,0.4-3.9,1.2c-1,0.8-1.5,2-1.6,3.6h-1.3c0.1-2,0.7-3.5,1.9-4.5c1.2-1,2.9-1.5,5-1.5c2.2,0,3.8,0.4,4.7,1.3
				c1,0.9,1.5,2,1.5,3.3v10.5c0,0.3,0,0.5,0,0.8c0,0.3,0.1,0.5,0.1,0.7c0.1,0.2,0.2,0.4,0.4,0.5c0.2,0.1,0.4,0.2,0.7,0.2
				c0.2,0,0.6,0,1-0.1V56c-0.4,0.1-0.7,0.1-1.1,0.1c-0.5,0-1-0.1-1.3-0.2s-0.6-0.3-0.7-0.6c-0.2-0.2-0.3-0.5-0.3-0.8
				c-0.1-0.3-0.1-0.7-0.1-1V52.5z M193.4,45.9c-0.3,0.4-0.8,0.7-1.5,0.8c-0.7,0.1-1.4,0.2-2.2,0.3l-2.2,0.2c-0.7,0.1-1.3,0.2-2,0.3
				c-0.7,0.1-1.2,0.3-1.8,0.6c-0.5,0.3-1,0.7-1.3,1.2c-0.3,0.5-0.5,1.2-0.5,2c0,1.3,0.4,2.3,1.3,3c0.8,0.6,2,1,3.5,1
				c1.5,0,2.7-0.3,3.6-0.8c0.9-0.5,1.6-1.2,2-1.9c0.5-0.7,0.8-1.4,0.9-2.1c0.1-0.7,0.2-1.1,0.2-1.3V45.9z"/>
			<path class="st0" d="M199,31.1h1.3v16.6l11.1-9.6h1.9l-7.9,6.7l8.4,11.3h-1.8l-7.7-10.3l-4.1,3.5v6.8H199V31.1z"/>
			<path class="st0" d="M215.2,31.1h1.3v16.6l11.1-9.6h1.9l-7.9,6.7l8.4,11.3h-1.8l-7.7-10.3l-4.1,3.5v6.8h-1.3V31.1z"/>
			<path class="st0" d="M243.3,52.5L243.3,52.5c-0.3,0.5-0.6,1-1,1.5c-0.4,0.5-0.9,0.9-1.5,1.3c-0.6,0.4-1.2,0.7-1.9,0.9
				s-1.5,0.3-2.4,0.3c-1.9,0-3.4-0.4-4.4-1.2c-1-0.8-1.6-2.1-1.6-3.8c0-1.1,0.2-1.9,0.6-2.6c0.4-0.7,1-1.2,1.6-1.6
				c0.6-0.4,1.4-0.7,2.1-0.8c0.8-0.2,1.5-0.3,2.3-0.4l2.1-0.2c1-0.1,1.7-0.2,2.3-0.3c0.5-0.2,1-0.4,1.2-0.6c0.3-0.3,0.5-0.6,0.5-1
				c0.1-0.4,0.1-0.9,0.1-1.6c0-0.5-0.1-0.9-0.3-1.4c-0.2-0.4-0.5-0.8-0.9-1.1c-0.4-0.3-0.9-0.6-1.5-0.8c-0.6-0.2-1.4-0.3-2.3-0.3
				c-1.6,0-2.9,0.4-3.9,1.2c-1,0.8-1.5,2-1.6,3.6h-1.3c0.1-2,0.7-3.5,1.9-4.5c1.2-1,2.9-1.5,5-1.5c2.2,0,3.8,0.4,4.7,1.3
				c1,0.9,1.5,2,1.5,3.3v10.5c0,0.3,0,0.5,0,0.8c0,0.3,0.1,0.5,0.1,0.7c0.1,0.2,0.2,0.4,0.4,0.5c0.2,0.1,0.4,0.2,0.7,0.2
				c0.2,0,0.6,0,1-0.1V56c-0.4,0.1-0.7,0.1-1.1,0.1c-0.5,0-1-0.1-1.3-0.2s-0.6-0.3-0.7-0.6c-0.2-0.2-0.3-0.5-0.3-0.8
				c-0.1-0.3-0.1-0.7-0.1-1V52.5z M243.3,45.9c-0.3,0.4-0.8,0.7-1.5,0.8c-0.7,0.1-1.4,0.2-2.2,0.3l-2.2,0.2c-0.7,0.1-1.3,0.2-2,0.3
				c-0.7,0.1-1.2,0.3-1.8,0.6c-0.5,0.3-1,0.7-1.3,1.2c-0.3,0.5-0.5,1.2-0.5,2c0,1.3,0.4,2.3,1.3,3c0.8,0.6,2,1,3.5,1
				c1.5,0,2.7-0.3,3.6-0.8c0.9-0.5,1.6-1.2,2-1.9c0.5-0.7,0.8-1.4,0.9-2.1c0.1-0.7,0.2-1.1,0.2-1.3V45.9z"/>
		</g>
		<g>
			<path class="st0" d="M93.4,384v-30.7h15.1v2.1H95.9v11.8h11.6v2.1H95.9V384H93.4z"/>
			<path class="st0" d="M116.6,384h-2.5v-32.3h2.5V384z"/>
			<path class="st0" d="M142.2,372.9c0,8.2-5.5,11.6-10.3,11.6c-5.6,0-9.9-4.3-9.9-11.2c0-7.5,4.8-11.6,10.2-11.6
				C138.2,361.6,142.2,366.2,142.2,372.9z M132.1,363.7c-5.3,0-7.6,4.9-7.6,9.5c0,5.2,3.2,9.3,7.5,9.3c4.4,0,7.6-4.1,7.6-9.5
				C139.6,369,137.5,363.7,132.1,363.7z"/>
			<path class="st0" d="M175.6,362.1l-7.1,21.9h-2.2l-3.9-11.9c-0.9-2.6-1.6-4.8-2.1-7.4h-0.1c-0.6,2.6-1.4,5-2.3,7.4l-4.1,11.8
				h-2.2l-6.6-21.9h2.6l3.4,12.1c0.7,2.5,1.3,4.8,1.8,6.9h0.1c0.5-2.1,1.3-4.4,2.1-6.9l4.1-12.2h2.3l3.9,12c0.9,2.6,1.5,4.8,2.1,7
				h0.2c0.4-2.1,1.1-4.3,1.9-6.9l3.7-12.1H175.6z"/>
			<path class="st0" d="M195.1,383.1c-1,0.5-3.2,1.4-6.8,1.4c-6.3,0-10.1-4.6-10.1-11c0-7.1,4-11.8,9.7-11.8c6.9,0,8.4,6.5,8.4,9.9
				c0,0.6,0,1-0.1,1.5h-15.6c0,6.8,3.7,9.4,8,9.4c3,0,4.6-0.6,5.9-1.2L195.1,383.1z M193.8,371.1c0-3.1-1.3-7.4-6.1-7.4
				c-4.5,0-6.5,4.2-6.9,7.4H193.8z"/>
			<path class="st0" d="M210.9,364.1c-0.3-0.1-0.6-0.1-1.1-0.1c-3.6,0-5.7,3.9-5.7,7.9V384h-2.5v-15.4c0-2.2,0-4.3-0.2-6.5h2.3
				l0.1,4.4h0.2c0.9-2.7,3.2-4.8,6.1-4.8c0.3,0,0.6,0.1,0.9,0.1V364.1z"/>
			<path class="st0" d="M238.1,356.4c-0.8-0.6-2.8-1.5-5.4-1.5c-4.7,0-6.3,2.9-6.3,5.3c0,3.3,1.9,5,6.2,6.7c5,2.1,7.6,4.5,7.6,9
				c0,4.6-3.4,8.4-9.8,8.4c-2.7,0-5.7-0.8-7.2-2l0.8-2.1c1.7,1.2,4.1,2,6.6,2c4.4,0,7-2.5,7-6.1c0-3.4-1.7-5.4-5.9-7.1
				c-4.7-1.7-7.8-4.3-7.8-8.6c0-4.5,3.7-7.8,9-7.8c2.8,0,5,0.7,6.1,1.4L238.1,356.4z"/>
			<path class="st0" d="M262.9,384h-2.5v-13c0-3.8-1.4-7.2-5.7-7.2c-2.9,0-5.4,2.1-6.3,4.7c-0.2,0.6-0.3,1.2-0.3,2.1V384h-2.5v-32.3
				h2.5v14.1h0.1c1.2-2.3,4.1-4.2,7.1-4.2c2.3,0,7.5,1.2,7.5,9.1V384z"/>
			<path class="st0" d="M288.3,372.9c0,8.2-5.5,11.6-10.3,11.6c-5.6,0-9.9-4.3-9.9-11.2c0-7.5,4.8-11.6,10.2-11.6
				C284.3,361.6,288.3,366.2,288.3,372.9z M278.2,363.7c-5.3,0-7.6,4.9-7.6,9.5c0,5.2,3.2,9.3,7.5,9.3c4.4,0,7.6-4.1,7.6-9.5
				C285.7,369,283.6,363.7,278.2,363.7z"/>
			<path class="st0" d="M296,366.1c1.5-2.8,4.2-4.5,7.8-4.5c5.4,0,9.2,4.6,9.2,11.1c0,8-4.7,11.8-9.7,11.8c-3,0-5.7-1.4-7.1-3.8
				h-0.1V393h-2.5v-23.9c0-2.8-0.1-4.9-0.2-6.9h2.3L296,366.1L296,366.1z M296.1,375.4c0,3.8,2.8,7,6.9,7c4.8,0,7.5-4,7.5-9.6
				c0-4.8-2.6-9.2-7.3-9.2c-4.6,0-7.1,4.4-7.1,7.4V375.4z"/>
		</g>
	</g>
	<g>
		<path class="st0" d="M256.7,118.2c-0.5-0.8-1.2-1.5-1.8-2.2c-0.1,0-0.1,0.1-0.2,0.1c-1.8-1.1-3.8-1.5-5.9-1.7c-0.3,0-0.6,0-0.9,0
			c1.6,0.4,3.2,0.8,4.8,1.2c0.6,0.2,1.1,0.4,1.7,0.6c1.3,0.6,2.3,1.5,2.5,3.1C257,118.9,256.9,118.5,256.7,118.2z M363.3,169.2
			c-0.1-0.1-0.1-0.1-0.2-0.2c-0.6,0.3-1.2,0.5-1.8,0.8c0,0-0.1-0.1-0.1-0.1c1.6-1.9,3.3-3.8,4.9-5.8c0,0-0.1-0.1-0.1-0.1
			c-1.3,1.3-2.5,2.5-3.8,3.8c0.1-0.5,0.2-1.1,0.3-1.6c-0.6,2.3-2.1,4.1-3.4,6.1c0.1-1,0.1-1.8,0.2-2.6c0,0-0.1,0-0.1,0
			c-0.2,0.8-0.2,1.7-0.5,2.5c-0.4,1.4-0.9,2.7-1.4,4.1c-0.1,0.5-0.1,1.1,0,1.6c0.4-1.1,0.6-2.2,1.6-3c0.9-0.7,1.8-1.3,2.7-2
			c0,0,0,0,0-0.1c-0.5,0.2-1,0.4-1.5,0.7c-0.5,0.3-0.9,0.6-1.5,0.9C359.6,171.9,360.8,170,363.3,169.2z"/>
		<path class="st0" d="M366.9,149.5c0.2-0.5,0.4-1.1,0.6-1.7c-0.3-0.1-0.5-0.1-0.7-0.1c0-0.5,0.1-1,0.1-1.5c-0.3,0-0.5,0.1-0.7,0.1
			c0-0.5,0-1.1-0.1-1.7c-0.2,0.1-0.4,0.1-0.5,0.1c0-0.5,0-0.9,0.1-1.4c-0.2,0.1-0.4,0.1-0.5,0.2c-0.1-0.4-0.1-0.9-0.2-1.3l-0.4,0.1
			c-0.2-0.5,0.3-1.3-0.7-1.4c0-0.4,0-0.9-0.1-1.4c-0.2,0.1-0.4,0.2-0.6,0.3c0-0.5,0-0.9-0.1-1.4l-0.6,0.3c-0.1-0.6-0.2-1.3-0.4-2
			l-1,1c-0.5-0.4-0.5-0.4-1.4,0.4c-0.1-0.2-0.2-0.3-0.3-0.5c-0.3,0.3-0.6,0.5-1,0.8c-0.7-0.6-0.8,0.3-1.3,0.5
			c-0.1-0.1-0.2-0.3-0.4-0.5c-0.4,0.4-0.7,0.7-1,1.1c-0.1-0.1-0.3-0.2-0.4-0.4c-0.3,0.3-0.6,0.6-0.9,1c-0.1-0.2-0.2-0.3-0.4-0.6
			c-0.4,0.5-0.8,1-1.2,1.5c-0.1-0.2-0.3-0.3-0.5-0.5l-1,1.5c-0.2-0.2-0.3-0.4-0.5-0.6c-0.4,0.7-0.7,1.3-1.1,2
			c-0.2-0.1-0.3-0.3-0.5-0.5c-0.2,0.5-0.4,1-0.7,1.6c-0.2-0.1-0.4-0.2-0.6-0.3c-0.1,0.6-0.2,1.2-0.3,1.9c-0.2,0-0.4,0-0.6-0.1
			c0,0.4,0.1,0.8,0.1,1.3c-0.2,0-0.4-0.1-0.6-0.1c0.1,0.8,0.1,1.6,0.2,2.5c-0.2,0-0.5,0-0.9,0c0.4,1.3,0.8,2.6,1.2,3.9
			c-0.2,0-0.4,0-0.7,0.1c0.2,0.5,0.3,1,0.5,1.5c-1.3-1.2-2.5-2.5-3.8-3.6c-5.9-5.1-12.4-8.9-20.3-9.7c-3.8-0.4-7.7-0.4-11.5-0.6
			c-8-0.4-16-1.1-23.8-2.9c-2.2-0.5-4.4-1.2-6.6-1.8c-0.4-0.1-0.5-0.3-0.6-0.7c-1.5-8.4,4.1-16.3,12.5-17.6c2.6-0.4,5.1,0.1,7.1,1.9
			c2.5,2.1,2.6,5.9,0.2,8.1c-0.6,0.6-1.4,1.1-2.2,1.5c-1.1,0.5-2.4,0.1-3.2-0.9c-0.4-0.5-0.6-1.1-0.3-1.8c0.3-0.7,0.8-1.1,1.6-1.1
			c0.3,0,0.5,0,0.8,0c-1.3-0.8-2.7,0-3.1,1.6c-0.3,1.3,0.5,2.7,1.8,3.2c1.9,0.7,4.1,0.1,5.6-1.6c2.5-2.9,2.2-6.8-0.7-9.5
			c-2.9-2.6-6.2-3.6-10.1-2.5c-7.8,2.3-12.4,9.4-11.2,17.6c0.1,0.4,0.1,0.7,0.2,1.2c-1.3-0.6-2.6-1.1-3.8-1.6
			c-4-1.8-7.5-4.3-10.5-7.5c-0.2-0.2-0.3-0.4-0.5-0.5c-0.6-0.6-0.8-1.1-0.5-2c0.5-1.5-0.1-2.9-1.1-4.1c-0.2-0.2-0.4-0.4-0.6-0.6
			c2.3-1.2,4-2.9,5.2-5.1c0.7-1.3,1.2-2.8,1.8-4.2c0.9-2.3,2.4-4,4.8-4.8c1.3-0.4,1.8-0.9,2.1-1.8c-0.5,0-0.9-0.1-1.4-0.1
			c-1.2,0-2.4-0.2-3.5-1c-1.6-1-3.4-1-5.3-0.8c-4.6,0.5-8.3,2.6-10.9,6.5c-0.8,1.2-2,2-3.3,2.6c-1.1,0.5-2.2,1.2-3.2,1.9
			c-0.7,0.5-0.9,1.1-0.8,1.7c0.1,0,0.1,0,0.2,0c0,0,0,0,0,0c0.3,0,0.6,0,0.9,0c2.1,0.2,4.1,0.6,5.9,1.7c0.1,0,0.1-0.1,0.2-0.1
			c0.6,0.7,1.3,1.4,1.8,2.2c0.2,0.4,0.3,0.8,0.3,1.1c0.1,1.1,0.2,1.1,1.3,1.2c-0.3,1.7,0.3,3.2,1.6,4.4c0.7,0.7,1.6,1,2.6,0.8
			c0.2,0,0.5,0.1,0.6,0.3c4.2,5.3,9.8,8.7,16,11.2c0.3,0.1,0.6,0.5,0.7,0.8c1.9,6.3,5.7,11.1,11.3,14.5c3.7,2.2,7.8,3.3,12.1,3.8
			c4.7,0.6,9.5,0.5,14.2,0.4c5.8-0.1,11.6,0.2,17.3,1.4c3.1,0.7,6.1,1.7,8.8,3.4c2.6,1.7,4.7,3.8,6.3,6.4c2,3.3,3.3,6.9,4.1,10.8
			c-0.1-0.1-0.2-0.3-0.3-0.4c-0.1-0.1-0.1-0.3-0.2-0.5c-2.7-5.3-6.5-9.7-11.6-12.9c-4.1-2.6-8.5-4.1-13.4-3.6
			c-5.4,0.6-9.7,3.2-12.3,8.2c-0.5,1.1-0.9,2.3-1,3.5c-0.4,3.5,3,6.6,6.4,6.2c2.1-0.2,3.4-1.8,3.3-4c-0.1,0.2-0.1,0.3-0.1,0.4
			c-0.6,3.2-3.7,3.7-5.7,2.8c-2.2-0.9-3.3-2.8-3.1-5.2c0.3-3,1.7-5.3,4-7.2c4-3.3,8.6-4.1,13.5-3.1c4.7,1,8.7,3.2,12.3,6.4
			c4,3.6,7,7.9,8.7,13c0.3,1,0.4,2,0.5,3c-1.4,10.3-3.9,20.5-7.3,30.4c-5.6,16.4-14.1,31.7-24.6,45.3c-5.2,6.8-11.1,13.2-17.4,19.1
			c-6.3,5.9-13,11.3-20.2,16.1c-7.2,4.8-14.7,8.9-22.5,12.5l-2.9,1.3c-1,0.4-2,0.9-3,1.2l-6,2.3l-6.1,2c-1,0.4-2,0.6-3.1,0.9
			l-3.1,0.9c-8.3,2.2-16.8,3.8-25.3,4.6c-8.5,0.8-17.1,1-25.7,0.5c-8.6-0.5-17.1-1.8-25.4-3.6l-3.1-0.7c-1.1-0.3-2.1-0.5-3.1-0.8
			l-6.2-1.8l-6.1-2.1l-1.5-0.5l-1.5-0.6l-3-1.2c-7.9-3.2-15.6-7.1-23-11.5c-7.3-4.5-14.2-9.5-20.7-15.1
			c-13.1-11.1-24.1-24.5-33-39.1c-4.4-7.3-8.2-15.1-11.3-23l-1.2-3c-0.4-1-0.7-2-1.1-3l-1-3c-0.4-1-0.7-2-1-3.1l-1.8-6.2l-1.5-6.3
			c-1.8-8.4-2.9-16.9-3.4-25.4c-0.4-8.6-0.1-17.1,0.8-25.7l0.8-6.4l1.1-6.3c0.2-1.1,0.4-2.1,0.6-3.1l0.7-3.1c0.3-1,0.5-2.1,0.7-3.1
			l0.9-3.1c2.3-8.2,5.2-16.4,8.9-24.1c7.3-15.5,17-30,28.8-42.4c23.5-25.1,55.6-42,89.6-47.5c8.5-1.4,17.1-2.1,25.8-2.2
			c8.6,0,17.3,0.6,25.8,2l3.2,0.5l3.2,0.6c2.1,0.4,4.2,0.9,6.3,1.4c4.2,1.1,8.4,2.2,12.5,3.6c8.2,2.7,16.2,6.1,23.9,10.1
			c-15.2-8.4-31.8-14.5-48.9-17.5c-8.6-1.6-17.3-2.4-26-2.5c-8.7-0.1-17.5,0.4-26.1,1.7c-34.6,5.2-67.4,22-91.8,47.3
			C73.6,59.2,67.9,66,63,73.2c-5,7.2-9.4,14.9-13.2,22.8c-3.8,7.9-6.8,16.2-9.3,24.7l-0.9,3.2c-0.3,1.1-0.5,2.1-0.8,3.2l-0.8,3.2
			c-0.3,1.1-0.5,2.1-0.7,3.2l-1.2,6.5l-0.9,6.5c-1,8.7-1.3,17.6-0.9,26.4c0.5,8.8,1.6,17.5,3.4,26.1l1.5,6.4l1.8,6.3
			c0.3,1.1,0.6,2.1,1,3.2l1.1,3.1c0.4,1,0.7,2.1,1.1,3.1l1.2,3.1l1.2,3.1c0.4,1,0.9,2,1.3,3l1.4,3c0.4,1,0.9,2,1.4,3l3,5.9l3.3,5.7
			c9.1,15.1,20.5,28.8,34,40.1c6.7,5.7,13.8,10.9,21.3,15.5c7.5,4.5,15.4,8.5,23.6,11.7c32.7,13.1,69.6,15.1,103.4,5.5l3.2-0.9
			c1.1-0.3,2.1-0.6,3.1-1l6.2-2.1l6.1-2.5c1-0.4,2-0.8,3-1.3l3-1.4c7.9-3.7,15.6-8.1,22.8-13c7.2-5,14-10.5,20.3-16.6
			c6.3-6,12.2-12.5,17.4-19.6c15.7-20.9,26-45.7,30-71.3c2-4.3,2.8-9.1,2.6-13.5c-0.3-0.6-0.7-1.7-1-2.9c-0.1-0.3-0.2-0.7-0.2-1
			c0,0,0,0,0,0c-0.8-3.7-1.4-8.6-1.6-10.5c1.1,0.1,2.2,0.3,3.2,0.2c1.1-0.1,2.1-0.4,3.3-0.6c-0.2-0.3-0.3-0.5-0.4-0.7
			c0.7-0.3,1.4-0.5,2.2-0.7c-0.1-0.2-0.1-0.4-0.2-0.5c0.4-0.3,0.9-0.5,1.4-0.8c-0.1-0.2-0.2-0.3-0.3-0.4c0.3-0.2,0.6-0.4,0.8-0.6
			c0.2-0.2,0.7-0.2,0.3-0.7c0,0,0.2-0.2,0.4-0.3c0.2-0.2,0.5-0.3,0.7-0.5l-0.3-0.4c0.3-0.3,0.5-0.6,0.9-0.9
			c-0.3-0.1-0.5-0.1-0.7-0.2c0.3-0.4,0.6-0.8,0.9-1.2c-0.3-0.1-0.5-0.1-0.7-0.2l1-1.5c-0.3-0.1-0.5-0.1-0.7-0.1
			c0.4-0.5,0.7-1,1.1-1.5c-0.3-0.1-0.5-0.1-0.8-0.2l0.9-1.4C367.2,149.6,367.1,149.5,366.9,149.5z M355.7,179.2c0,0.4,0,0.8,0,1.2
			c0,0.3,0,0.5-0.1,0.8c-0.1,0-0.1,0-0.1,0c0,0-0.1,0-0.1,0c0-0.1,0-0.2,0-0.3c-0.5-5.3-2.4-10-5.2-14.5c-2.9-4.6-6.8-8.2-11.8-10.4
			c-4.1-1.9-8.5-2.9-13-3.2c-5.8-0.5-11.6-0.2-17.4-0.1c-3.5,0.1-6.9,0-10.4-0.2c-3.3-0.2-6.4-1.3-9.2-3.3c-3.5-2.5-5.7-5.9-7.2-9.8
			c-0.2-0.4-0.3-0.9-0.5-1.4c0.2,0,0.4,0,0.5,0.1c5.2,1.8,10.5,2.9,15.8,3.8c7.7,1.2,15.5,1.6,23.3,1.9c5.4,0.2,10.4,1.8,15,4.4
			c5,2.8,9.3,6.6,12.8,11.1C353,165.1,355.6,171.7,355.7,179.2z M351.9,161.8c1.7,0.8,2.2,1.6,2,3.7
			C353.3,164.3,352.6,163.1,351.9,161.8z M360,148.5c-2.4,1.5-4.3,3.5-5.7,6c-0.6,1.2-0.6,2.4-0.6,3.8c1.5-2.5,3.8-3.4,6.1-4.5
			c-0.1,0.1-0.2,0.2-0.4,0.3c-1.4,1-2.9,1.9-4.2,3.1c-1.1,1-1.8,2.3-1.2,3.9c0,0.1,0,0.2,0,0.2c-0.1,0-0.1,0-0.2,0
			c-0.1-0.2-0.2-0.4-0.2-0.6c-0.1-0.8-0.5-1.5-1-2.1c-1.4-1.9-2.2-4.1-2.7-6.4c0.5,1,0.9,2.1,1.4,3.2c0.5,1.1,1,2.1,1.9,3
			c0.1-1.3,0.3-2.4,0.4-3.6c0-0.2-0.1-0.4-0.1-0.6c-0.3-1.3-0.8-2.6-1-3.9c-0.3-1.5-0.3-3,0.1-4.4c0,2.6,0.2,5.2,1.2,7.8
			c0.4-1.4,0.8-2.6,1.2-3.9c0.1-0.5,0.2-0.9,0.3-1.4c0.1-1.4,0.2-2.8,0.3-4.3c0-0.4,0.2-0.8,0.3-1.2c0,0,0.1,0,0.1,0
			c-0.1,1.6-0.2,3.2-0.2,4.8c1.3-2,2.4-4.1,4.2-5.7c-1.1,1.6-2.2,3.1-3.2,4.7c0.1,0.1,0.1,0.1,0.2,0.2c0.3-0.2,0.6-0.5,1-0.7
			c0.4-0.2,0.7-0.4,1.1-0.6c0.3-0.2,0.7-0.3,1-0.4c0,0.1,0.1,0.1,0.1,0.2c-3.3,1.5-5.3,4-5.7,7.6c1.5-2.2,3.3-3.9,5.8-4.8
			C360.2,148.3,360.1,148.4,360,148.5z"/>
		<path class="st0" d="M246,110.9c1.3-0.7,2.5-1.2,3.6-1.9c1.6-1,2.4-2.6,3-4.3c0.7-1.6,1.6-3.1,2.6-4.5c1.9-2.7,3.3-5.7,3.8-9.1
			c0.3-2,0.1-4.3-0.5-5.4c-0.6,0.8-1.2,1.7-1.9,2.5c-0.5,0.6-1.2,1.1-1.9,1.5c-2.4,1.4-4.7,2.9-6.5,5c-0.5,0.7-1,1.4-1.4,2.2
			c-0.5,0.9-0.4,1.8-0.1,2.7c1.1,3.3,1.1,6.7-0.2,9.9c-0.1,0.2-0.2,0.4-0.3,0.6C246.2,110.4,246.1,110.6,246,110.9z"/>
		<path class="st0" d="M258.5,97.8c3.4-0.9,6.9-1.7,10-3.5c0.8-0.5,1.4-1.1,1.7-2c0.9-2.6,2.5-4.6,5-5.8c-1.7-0.8-3.4-1.7-5-2.4
			c-1.6-0.8-3.2-0.6-4.6,0.3c-0.8-0.3-1.5-0.7-2.2-0.9c-1-0.2-1.4,0.2-1.6,1.2c-0.1,0.6-0.4,1.1-0.6,1.6c-0.3,1-0.6,1.9-0.8,2.9
			c-0.3,1.8-0.5,3.6-0.8,5.4C259.4,95.8,258.9,96.7,258.5,97.8z"/>
		<path class="st0" d="M257,119.3c0,0.7-0.5,1.4-1.2,1.7c-1.1,0.5-2.2,0.9-3.3,1.3c-2.1,0.7-4.1,0.3-5.9-0.8
			c-2.1-1.3-4.1-2.8-6.2-4.1c-3-1.8-6.1-2.8-9.7-2.1c-0.3,0.1-0.5,0.1-0.8,0.1c-0.3,0-0.6-0.1-0.9-0.2c0.1-0.3,0.3-0.6,0.4-0.9
			c0-0.1,0.1-0.1,0.1-0.2c1.9-1.4,4-2.1,6.4-1.3c2.5,0.9,5,1.6,7.7,1.4c1.5-0.1,2.9-0.1,4.4,0c0,0,0,0,0,0c0.3,0,0.6,0,0.9,0
			c2.1,0.2,4.1,0.6,5.9,1.7c0.1,0,0.1-0.1,0.2-0.1c0.6,0.7,1.3,1.4,1.8,2.2C256.9,118.5,257,118.9,257,119.3z"/>
		<path class="st0" d="M225.5,104.9c0,1.2,0.7,2,1.5,2.5c1.9,1.2,3.8,2.3,5.7,3.3c3.2,1.7,6.6,2.5,10.3,2.4c0.7,0,1.4-0.1,2.1-0.2
			c-0.1-0.2-0.1-0.3-0.2-0.5c-0.6-1.3-0.4-2.2,0.6-3.2c0.2-0.2,0.5-0.4,0.7-0.7c1-1.2,1.1-2.8,0.2-4.1c-0.3-0.4-0.9-0.7-1.3-0.7
			c-1.5,0-3.1,0.1-4.6,0.4c-1.6,0.3-3.1,0.8-4.7,1.3c-2.7,0.7-5.4,1.1-8.1,0.3C227,105.5,226.3,105.2,225.5,104.9z"/>
		<path class="st0" d="M242.5,140.2c0.7-0.9,1.2-1.6,1.8-2.2c1.4-1.2,2.8-2.3,4.3-3.4c0.7-0.5,1.4-0.9,2.2-1.3c3.2-1.6,5-4.3,6-7.5
			c0.5-1.6,0.9-3.3,1.4-4.9c-0.1,0-0.1-0.1-0.2-0.1c-0.2,0.2-0.3,0.3-0.5,0.5c-2.4,2.1-5.1,3.1-8.3,3.1c-0.3,0-0.7,0.1-0.9,0.3
			c-2.9,4.3-5,8.9-5.7,14C242.6,139.1,242.6,139.5,242.5,140.2z"/>
		<path class="st0" d="M284.6,114.2c-1,0.4-2.1,0.8-3,1.3c-1.4,0.7-2.7,0.6-4-0.2c-0.7-0.4-1.3-0.9-2-1.4c-1.2-0.9-2.5-1.8-4-2.1
			c-1.2-0.2-1.2-0.2-1.6,0.8c-1.1,2.9-3,5.1-5.8,6.6c0.1,0.1,0.2,0.1,0.2,0.2c3.4,0.7,6.8,1.4,10.2,2c1.7,0.3,3.3,0,4.8-0.9
			c1.9-1.1,3.8-2.3,5-4.3c0.3-0.5,0.4-1.1,0.6-1.7C284.8,114.4,284.7,114.3,284.6,114.2z"/>
		<path class="st0" d="M276,87.2c-1.9,0.8-3.2,2-4,3.8c-1.3,2.9-3.6,4.7-6.6,5.5c-1.3,0.4-2.6,0.6-4,0.9c-2.4,0.5-4.1,2-5.7,3.8
			c-1.4,1.5-2.4,3.3-2.7,5.4c1.2-1.5,2.5-2.9,4.1-4c2.3-1.5,4.8-2.7,7.5-3.2c1.1-0.2,2.2-0.1,3.3,0c1.2,0.1,2.5,0.4,3.7,0.6
			c0.8,0.1,1.6,0.1,2.3,0c1.4-0.2,2.2-1.4,1.9-2.8c-0.2-0.9-0.5-1.8-0.9-2.6c-1.1-2.4-0.6-4.7,0.8-6.8c0.1-0.1,0.2-0.3,0.3-0.4
			C276,87.3,276,87.3,276,87.2z"/>
		<path class="st0" d="M235.2,91.8c2.8,3.6,5.8,6.9,9.8,9.2c0.1-0.1,0.2-0.2,0.2-0.2c-0.5-2.9,0.8-5.2,2.6-7.2
			c1.7-1.9,3.8-3.4,5.8-4.9c0.6-0.4,1.2-1,1.6-1.6c1-1.4,0.5-2.8-1.1-3.5c-0.5,0.8-1,1.8-1.6,2.5c-1.5,1.7-3.5,2.8-5.5,3.8
			c-1.5,0.7-3.1,1.3-4.7,1.8c-1,0.3-2.1,0.3-3.2,0.2c-1.2,0-2.5-0.2-3.7-0.3C235.3,91.6,235.3,91.7,235.2,91.8z"/>
		<path class="st0" d="M245.8,103c-1.5-1.1-2.9-2.1-4.2-3.1c-2-1.4-4-2.8-5.6-4.6c-0.7-0.7-1.6-1.1-2.6-1.3c-0.9-0.1-1.6,0.1-2,0.9
			c-0.3,0.5-0.7,1-1,1.6c-1.3,2.4-0.3,4.8,2.4,5.5c1.2,0.3,2.5,0.3,3.7,0.4c1.4,0,2.7-0.1,4.1-0.1c0.9,0,1.8,0,2.7,0.1
			C244,102.6,244.8,102.8,245.8,103z"/>
		<path class="st0" d="M242,103.2c-0.6-0.1-1.2-0.1-1.9-0.2c-1.8,0-3.5,0-5.3-0.1c-1,0-2-0.2-2.9-0.4c-2.2-0.6-3.3-2.3-2.9-4.6
			c0-0.2,0.1-0.4,0.1-0.6c-0.7,0.3-1.3,0.5-1.9,0.7c-2,0.8-2.7,2.9-1.4,4.6c1.2,1.8,3,2.9,5.2,3c1.1,0,2.3-0.1,3.4-0.3
			C236.9,104.7,239.5,103.9,242,103.2z"/>
		<path class="st0" d="M240.8,90.4c-0.3-0.2-0.5-0.4-0.8-0.6c-0.4-0.3-0.5-0.7,0-1c1.5-1.1,3.1-1.9,5-1.9c0.7,0,1.4,0.2,2,0.5
			c0.6,0.2,1.8-0.2,1.9-0.8c0-0.2-0.1-0.5-0.3-0.7c-0.7-0.7-1.6-1-2.5-1c-3.4,0.1-6.5,1.2-8.9,3.7c-0.5,0.5-0.7,1.3-0.9,1.9
			c-0.1,0.1,0.1,0.5,0.2,0.6c0.8,0.5,3.3,0.3,4-0.3C240.7,90.6,240.7,90.5,240.8,90.4z"/>
		<path class="st0" d="M245.8,88.4c-0.2-0.1-0.5-0.2-0.8-0.2c-1.2,0-2.3,0.4-3.3,1.2c-0.5,0.4-0.6,1.2-0.2,1.6
			c0.4,0.4,0.9,0.4,1.4,0c0.2-0.2,0.5-0.4,0.7-0.5C244.3,89.7,245,89.1,245.8,88.4z"/>
	</g>
	<circle class="st0" cx="62.6" cy="372" r="12"/>
	<circle class="st0" cx="343.1" cy="372" r="12"/>
</g>
</svg>
