<?xml version="1.0" encoding="utf-8"?>
<!-- Generator: Adobe Illustrator 22.0.1, SVG Export Plug-In . SVG Version: 6.00 Build 0)  -->
<svg version="1.1" id="レイヤー_1" xmlns="http://www.w3.org/2000/svg" xmlns:xlink="http://www.w3.org/1999/xlink" x="0px"
	 y="0px" viewBox="0 0 400 400" style="enable-background:new 0 0 400 400;" xml:space="preserve">
<style type="text/css">
	.st0{fill:#29524b;}
</style>
<g>
	<path class="st0" d="M96.2,307.8H98c1,0,1.8,0.1,2.2,0.4s0.6,0.7,0.6,1.4c0,0.7-0.2,1.2-0.6,1.5c-0.4,0.3-1.2,0.4-2.4,0.4h-5.8
		h-1.2c-0.6,0-1.1-0.2-1.5-0.5c-0.3-0.3-0.5-0.8-0.5-1.4c0-0.7,0.2-1.2,0.6-1.4c0.4-0.3,1.1-0.4,2.1-0.4h0.5v-23.7h-0.4
		c-1.1,0-1.8-0.1-2.2-0.4c-0.4-0.3-0.6-0.8-0.6-1.5c0-0.6,0.2-1.1,0.5-1.4c0.3-0.3,0.8-0.5,1.5-0.5h1.1h5.5c1.4,0,2.3,0.1,2.7,0.4
		c0.4,0.3,0.6,0.8,0.6,1.5c0,0.7-0.2,1.2-0.7,1.5s-1.4,0.4-2.7,0.4h-1.2v9.1h12.6v-9.1H107c-1,0-1.7-0.1-2.1-0.4
		c-0.4-0.3-0.6-0.8-0.6-1.4c0-0.7,0.2-1.2,0.6-1.5c0.4-0.3,1.4-0.4,2.9-0.4h5.2h1.2c0.6,0,1.1,0.2,1.4,0.5c0.3,0.3,0.5,0.8,0.5,1.4
		c0,0.7-0.2,1.2-0.6,1.5c-0.4,0.3-1,0.4-2,0.4h-0.6v23.7h0.4c1.1,0,1.8,0.1,2.2,0.4s0.6,0.7,0.6,1.4c0,0.7-0.2,1.2-0.6,1.5
		c-0.4,0.3-1.2,0.4-2.5,0.4h-5.4c-1.4,0-2.3-0.1-2.7-0.4c-0.4-0.3-0.6-0.8-0.6-1.5c0-0.7,0.2-1.2,0.7-1.4c0.5-0.3,1.3-0.4,2.6-0.4
		h1.3v-10.9H96.2V307.8z"/>
	<path class="st0" d="M147.3,307.8c1.3,0,2.2,0.1,2.6,0.4c0.4,0.3,0.6,0.7,0.6,1.4c0,0.7-0.2,1.2-0.6,1.5c-0.4,0.3-1.1,0.4-2.3,0.4
		h-12.5c-1.1,0-1.9-0.1-2.3-0.4c-0.4-0.3-0.6-0.8-0.6-1.5c0-0.7,0.2-1.2,0.6-1.4s1.3-0.4,2.6-0.4h3.8v-8.7l-8.8-15h-0.4
		c-1.1,0-1.8-0.1-2.2-0.4c-0.4-0.3-0.6-0.8-0.6-1.5c0-0.6,0.2-1.1,0.5-1.4c0.3-0.3,0.8-0.5,1.5-0.5h1.2h6c1,0,1.7,0.1,2.1,0.4
		c0.4,0.3,0.5,0.8,0.5,1.5c0,0.7-0.2,1.2-0.6,1.5c-0.4,0.3-1.2,0.4-2.4,0.4h-0.9l6.4,11.4l6.6-11.4h-1.1c-0.9,0-1.6-0.1-2-0.4
		c-0.4-0.3-0.6-0.8-0.6-1.5c0-0.7,0.2-1.2,0.5-1.5s1.1-0.4,2.4-0.4h0.7h4.2c1.3,0,2.2,0.1,2.6,0.4c0.4,0.3,0.6,0.8,0.6,1.5
		c0,0.7-0.2,1.2-0.6,1.5c-0.4,0.3-1.1,0.4-2.1,0.4h-0.4l-8.9,15.3v8.4H147.3z"/>
	<path class="st0" d="M176.5,284.2h-3.8c-1.1,0-1.8-0.1-2.2-0.4c-0.4-0.3-0.6-0.8-0.6-1.5c0-0.7,0.2-1.2,0.6-1.5
		c0.4-0.3,1.4-0.4,3.1-0.4h7.5c1,0,1.6,0.1,2,0.4c0.3,0.3,0.7,0.7,0.9,1.4l10.3,25.7h0.4c0.9,0,1.6,0.1,1.9,0.4
		c0.4,0.3,0.5,0.7,0.5,1.4c0,0.7-0.2,1.2-0.5,1.5c-0.3,0.3-1,0.4-1.9,0.4h-7.1c-1.3,0-2.2-0.1-2.6-0.4c-0.4-0.3-0.6-0.8-0.6-1.5
		c0-0.7,0.2-1.1,0.6-1.4c0.4-0.3,1.2-0.4,2.3-0.4h2.4l-2.5-6.3h-13.4l-2.3,6.3h2.5c1.2,0,1.9,0.1,2.4,0.4c0.4,0.3,0.6,0.7,0.6,1.4
		c0,0.7-0.2,1.2-0.6,1.5c-0.4,0.3-1.2,0.4-2.5,0.4h-6.9c-1.1,0-1.9-0.1-2.2-0.4c-0.4-0.3-0.6-0.8-0.6-1.5c0-0.7,0.2-1.2,0.6-1.4
		c0.4-0.3,1.1-0.4,2.1-0.4h0.5L176.5,284.2z M175.2,298.1h10.7l-5.7-13.9L175.2,298.1z"/>
	<path class="st0" d="M214.2,307.8h1.8c1,0,1.8,0.1,2.2,0.4c0.4,0.3,0.6,0.7,0.6,1.4c0,0.7-0.2,1.2-0.6,1.5
		c-0.4,0.3-1.1,0.4-2.1,0.4h-9c-0.6,0-1-0.2-1.4-0.5s-0.5-0.8-0.5-1.4c0-0.6,0.2-1.1,0.5-1.4s0.9-0.4,1.7-0.4h0.8h1.7v-23.7h-1.7
		c-1.3,0-2.2-0.1-2.5-0.4c-0.4-0.3-0.6-0.8-0.6-1.5c0-0.6,0.2-1.1,0.5-1.4s0.8-0.5,1.4-0.5h9c1,0,1.7,0.1,2.1,0.4
		c0.4,0.3,0.6,0.8,0.6,1.5c0,0.7-0.2,1.2-0.7,1.5s-1.4,0.4-2.7,0.4h-1.2v10.7l11-10.7h-0.3h-0.6c-0.9,0-1.5-0.1-1.9-0.4
		c-0.4-0.3-0.6-0.8-0.6-1.4c0-0.7,0.1-1.2,0.4-1.5s0.8-0.4,1.4-0.4h7.8c0.6,0,1.1,0.2,1.4,0.5s0.5,0.8,0.5,1.4
		c0,0.7-0.2,1.2-0.6,1.5c-0.4,0.3-1.1,0.4-2.2,0.4h-0.4L220,294c1.5,0.3,3,1.3,4.4,2.9s3.6,5.3,6.6,10.9h0.5c1.1,0,1.8,0.1,2.2,0.4
		s0.6,0.7,0.6,1.4c0,0.6-0.2,1.1-0.5,1.4s-0.8,0.5-1.4,0.5h-2.5c-0.6,0-1-0.1-1.2-0.2c-0.3-0.1-0.5-0.4-0.8-0.8
		c-0.2-0.2-1.1-2-2.9-5.3l-1-1.9c-1.1-2-2.2-3.6-3.3-4.6c-1.1-1-2.3-1.6-3.5-1.8l-2.9,2.7V307.8z"/>
	<path class="st0" d="M253.3,307.8h1.8c1,0,1.8,0.1,2.2,0.4c0.4,0.3,0.6,0.7,0.6,1.4c0,0.7-0.2,1.2-0.6,1.5
		c-0.4,0.3-1.1,0.4-2.1,0.4h-9c-0.6,0-1-0.2-1.4-0.5c-0.3-0.3-0.5-0.8-0.5-1.4c0-0.6,0.2-1.1,0.5-1.4c0.3-0.3,0.9-0.4,1.7-0.4h0.8
		h1.7v-23.7h-1.7c-1.3,0-2.2-0.1-2.5-0.4c-0.4-0.3-0.6-0.8-0.6-1.5c0-0.6,0.2-1.1,0.5-1.4c0.3-0.3,0.8-0.5,1.4-0.5h9
		c1,0,1.7,0.1,2.1,0.4c0.4,0.3,0.6,0.8,0.6,1.5c0,0.7-0.2,1.2-0.7,1.5s-1.4,0.4-2.7,0.4h-1.2v10.7l11-10.7h-0.3h-0.6
		c-0.9,0-1.5-0.1-1.9-0.4c-0.4-0.3-0.6-0.8-0.6-1.4c0-0.7,0.1-1.2,0.4-1.5s0.8-0.4,1.4-0.4h7.8c0.6,0,1.1,0.2,1.4,0.5
		s0.5,0.8,0.5,1.4c0,0.7-0.2,1.2-0.6,1.5c-0.4,0.3-1.1,0.4-2.2,0.4h-0.4L259,294c1.5,0.3,3,1.3,4.4,2.9s3.6,5.3,6.6,10.9h0.5
		c1.1,0,1.8,0.1,2.2,0.4s0.6,0.7,0.6,1.4c0,0.6-0.2,1.1-0.5,1.4s-0.8,0.5-1.4,0.5h-2.5c-0.6,0-1-0.1-1.2-0.2
		c-0.3-0.1-0.5-0.4-0.8-0.8c-0.2-0.2-1.1-2-2.9-5.3l-1-1.9c-1.1-2-2.2-3.6-3.3-4.6c-1.1-1-2.3-1.6-3.5-1.8l-2.9,2.7V307.8z"/>
	<path class="st0" d="M293.6,284.2h-3.8c-1.1,0-1.8-0.1-2.2-0.4c-0.4-0.3-0.6-0.8-0.6-1.5c0-0.7,0.2-1.2,0.6-1.5
		c0.4-0.3,1.4-0.4,3.1-0.4h7.5c1,0,1.6,0.1,2,0.4c0.3,0.3,0.7,0.7,0.9,1.4l10.3,25.7h0.4c0.9,0,1.6,0.1,1.9,0.4s0.5,0.7,0.5,1.4
		c0,0.7-0.2,1.2-0.5,1.5c-0.3,0.3-1,0.4-1.9,0.4h-7.1c-1.3,0-2.2-0.1-2.6-0.4s-0.6-0.8-0.6-1.5c0-0.7,0.2-1.1,0.6-1.4
		c0.4-0.3,1.2-0.4,2.3-0.4h2.4l-2.5-6.3h-13.4l-2.3,6.3h2.5c1.2,0,1.9,0.1,2.4,0.4c0.4,0.3,0.6,0.7,0.6,1.4c0,0.7-0.2,1.2-0.6,1.5
		s-1.2,0.4-2.5,0.4h-6.9c-1.1,0-1.9-0.1-2.2-0.4c-0.4-0.3-0.6-0.8-0.6-1.5c0-0.7,0.2-1.2,0.6-1.4c0.4-0.3,1.1-0.4,2.1-0.4h0.5
		L293.6,284.2z M292.2,298.1H303l-5.7-13.9L292.2,298.1z"/>
</g>
<g>
	<g>
		<path class="st0" d="M390.8,251.5l-1,0c0.8-28.8-5.1-58.1-17.1-84.7c-12.6-27.9-31.2-51.9-55.2-71.5
			c-82.3-67.2-202.2-57.1-267.2,22.5c-25.7,31.5-39.9,69.9-40.9,111c0,1,0.1,1.9,0.3,2.9l-1,0.2c-0.2-1-0.3-2.1-0.3-3.1
			c1-41.3,15.2-79.9,41.1-111.6C114.9,37.2,235.4,27,318.1,94.6c24.1,19.7,42.8,43.9,55.5,71.9C385.7,193.2,391.6,222.6,390.8,251.5
			z"/>
	</g>
	<g>
		<path class="st0" d="M390.8,251.5l-1,0c0.1-25.6-4.4-50.2-13.4-73.1c-4.5-11.6-10.2-22.7-16.8-33.2l-2.5-3.9
			c-0.3-0.4-0.6-0.9-0.9-1.3c-0.5-0.8-1.1-1.7-1.7-2.5L349,130l-0.7-0.9c-3.6-4.5-7.3-9.1-11.4-13.2l-3.2-3.4l-8.4-8l-8.8-7.6
			l-7.3-5.7c-10-7.4-20.7-13.8-31.8-19.1c-22.2-10.7-46.9-17.2-71.3-18.8c-24.8-1.7-50,1.6-73.1,9.4c-11.7,4-23.1,9.1-33.7,15.3
			c-10.7,6.3-20.8,13.7-29.9,21.9c-18.5,16.7-33.5,37.3-43.6,59.6c-5.3,11.7-9.3,23.6-11.9,35.3l-1,4.6l-0.8,4.6
			c-0.4,2.1-0.7,4.3-1,6.5c-0.1,0.9-0.2,1.9-0.4,2.8c-0.1,1-0.2,2-0.3,3c-0.1,0.6-0.1,1.1-0.2,1.7c0,0.5-0.1,1.1-0.2,1.7
			c-0.1,1-0.2,2-0.3,3l-0.3,4.7c0,0.3,0,0.5,0,0.8c0,0.5-0.1,1-0.1,1.5c0,0.7,0.1,1.5,0.2,2.2l-1,0.2c-0.2-0.8-0.3-1.6-0.3-2.4
			c0-0.5,0-1.1,0-1.6c0-0.3,0-0.5,0-0.8l0.1-4.7c0-1,0.1-2.1,0.2-3.1c0-0.6,0.1-1.1,0.1-1.7c0-0.6,0.1-1.1,0.1-1.7
			c0.1-1,0.1-2,0.2-3.1c0.1-0.8,0.2-1.7,0.3-2.5c0.2-2.3,0.5-4.6,0.9-6.9l0.7-4.6l0.9-4.6c2.3-12,6.1-24.1,11.2-36.1
			c4.8-11.2,11-22.2,18.6-33c7.2-10.2,15.6-19.8,25-28.5c18.2-17,40.6-30.4,64.8-38.7c23.5-8.1,49.4-11.5,75-9.9
			c25.1,1.7,50.4,8.4,73,19.5c22.8,11.1,43.7,26.8,60.4,45.3c4.1,4.4,7.9,9.1,11.5,13.8l0.6,0.8l5.5,7.7c0.6,0.8,1.2,1.8,1.7,2.6
			c0.3,0.5,0.6,0.9,0.8,1.3l2.5,4c6.6,10.9,12.2,22.3,16.5,34l3,8.9c0.6,2,1.1,3.9,1.7,5.9c0.3,1.1,0.6,2.2,0.9,3.2
			c0.1,0.3,0.1,0.5,0.2,0.8c0.1,0.5,0.3,1,0.4,1.5l2.3,10.4l1.7,10.5c0.1,1,0.2,2,0.3,3.1c0.1,0.6,0.1,1.1,0.2,1.7
			c0.1,0.9,0.2,1.8,0.3,2.7c0.2,2.2,0.5,4.4,0.5,6.7l0.2,4.7c0,0.5,0,0.9,0.1,1.4c0,1.1,0.1,2.2,0.1,3.4L390.8,251.5
			C390.8,251.5,390.8,251.5,390.8,251.5L390.8,251.5z M193.3,51.8c4.3,0,8.6,0.1,12.9,0.4c24.5,1.6,49.3,8.1,71.7,18.9
			c11.1,5.3,21.9,11.8,31.9,19.2l7.4,5.7l8.9,7.6l8.4,8.1l3.2,3.4c4.1,4.2,7.8,8.8,11.4,13.3l0.7,0.9l5.5,7.5
			c0.6,0.8,1.2,1.7,1.7,2.6c0.3,0.4,0.6,0.9,0.9,1.3l2.5,3.9c6.6,10.5,12.3,21.8,16.8,33.4c4.9,12.4,8.5,25.4,10.7,38.7l-1.4-8.5
			l-2.3-10.3c-0.1-0.5-0.2-1-0.4-1.4c-0.1-0.3-0.2-0.5-0.2-0.8c-0.3-1.1-0.6-2.2-0.9-3.2c-0.5-1.9-1.1-3.9-1.7-5.8l-3-8.9
			c-4.3-11.6-9.9-23-16.4-33.8l-2.5-4c-0.3-0.4-0.6-0.9-0.9-1.4c-0.5-0.9-1.1-1.8-1.7-2.6l-6.1-8.5c-3.6-4.6-7.4-9.4-11.4-13.7
			c-16.7-18.5-37.4-34.1-60.1-45.1c-22.5-11-47.7-17.7-72.7-19.4c-25.4-1.7-51.2,1.7-74.6,9.8c-24.1,8.3-46.4,21.6-64.5,38.5
			c-9.3,8.7-17.7,18.2-24.8,28.3c-7.5,10.7-13.8,21.7-18.5,32.8c-5.1,11.9-8.8,24-11.1,35.9l-0.4,2.2l0.5-2.2
			c2.6-11.8,6.6-23.7,12-35.5c10.1-22.5,25.3-43.2,43.8-60c9.2-8.3,19.3-15.7,30.1-22c10.7-6.3,22.1-11.4,33.9-15.4
			C151.9,55.2,172.7,51.8,193.3,51.8z"/>
	</g>
</g>
<g>
	<g>
		<path class="st0" d="M168.4,100.5c-5.1,0.2-9.9,0.6-14.4,1.1c-4.4,0.5-8.6,1.2-12.4,2c-7.8,1.5-13.2,3.2-16.5,5.1
			c-3.3,1.8-5.9,2.7-7.7,2.7c-1.7,0-2.6-0.8-2.6-2.4c0-1.6,1.3-4,3.9-7.3c2.5-3.1,4.7-4.7,6.5-4.7c0.6,0,1.4,0.2,2.3,0.5
			c1,0.3,2,0.5,2.9,0.5c0.9,0,2.8-0.1,5.6-0.3c7.7-0.7,15-1.2,22.1-1.5c7.1-0.3,14-0.5,20.6-0.5c13.2,0,24.9,0.3,35.2,0.9
			c10.4,0.6,16.5,0.9,18.3,0.9h5c1-0.2,1.6,0.1,1.9,0.8c0.3,0.7,0.2,1.6-0.2,2.6c-0.4,1.1-1,2.2-2,3.6c-1,1.3-2.1,2.5-3.4,3.5
			c-2,1.1-3.7,1.7-5,1.7c-1.5,0-4.8-1.1-9.8-3.3c-5-2.3-10.7-3.9-16.9-4.8c-6.2-0.9-14.2-1.2-23.7-1.1c-0.8,4.4-1.5,8.4-2.2,11.8
			c-0.7,3.4-1.2,6.4-1.6,8.9c6.5-0.2,12.2-0.2,16.8,0.1c4.7,0.3,8.6,0.6,11.7,1.1c3.1,0.5,5.5,1.1,7.3,1.9c1.7,0.8,2.9,1.5,3.5,2.2
			c0.8,0.8,1.2,1.7,1.2,2.7c0,1-0.4,2.9-1.1,5.6c-0.4,1.3-0.7,2.8-0.9,4.4c-0.2,1.6-0.4,3.4-0.6,5.3c-0.1,3.7-0.3,11.5-0.5,23.4
			c0,4.6-0.6,8-1.8,10.1c-1.2,2.1-3.2,3.2-5.9,3.2c-1.1,0-2.3-0.2-3.6-0.5c-3.2-0.7-8.5-1.1-15.7-1.1c-3.5,0-7.1,0.1-10.7,0.2
			c-3.6,0.2-7.1,0.4-10.7,0.8c-7.3,0.6-11.6,1.3-13.1,2c-1.6,0.8-2.9,1.2-3.9,1.2c-2.3,0-4.1-1.3-5.2-4c-1.2-2.7-1.7-6.6-1.7-11.7
			l0.5-14.4c0.1-2.9,0.2-5.8,0.2-8.7c0-2.9,0.1-5.6,0.1-8.2c0-5.3,0.4-9,1.2-10.9c0.9-1.9,2.9-3.1,6-3.5c3.1-0.4,10.1-0.9,20.9-1.4
			C168.8,113.3,168.8,106.5,168.4,100.5z M147,152.8c-0.3,6.6-0.5,11.3-0.5,13.9c0,2.7,0.6,4.7,1.8,6c1.2,1.4,3.9,2.1,8,2.1
			c4.2,0,11.9-0.2,23.1-0.5c11.2-0.4,17.6-0.7,19.3-0.9c1.6-0.1,2.8-0.7,3.6-1.7c0.8-1,1.4-3,1.7-5.9c0.4-2.9,0.5-7.8,0.5-14.5
			c-3.8-0.1-7.6-0.2-11.4-0.2c-3.8,0-7.6,0-11.4,0c-3.8,0-8.6,0.1-14.4,0.4C161.7,151.9,154.8,152.3,147,152.8z M204.7,146
			c0-9.2-0.4-14.5-1.1-15.9c-0.8-1.6-2.1-2.8-3.9-3.5c-1.8-0.9-6-1.4-12.7-1.4c-3.2,0-6.5,0.1-9.7,0.2c-3.3,0.2-6.5,0.3-9.7,0.5
			c-6.2,0.4-10.4,1-12.5,1.7c-1.7,0.4-3.3,1.5-4.8,3.3c-1.3,1.6-2.1,4.4-2.4,8.3c-0.2,3.8-0.4,6.4-0.5,7.7
			c8.6-0.4,17.6-0.7,27.1-0.9C183.9,146,194,145.9,204.7,146z"/>
	</g>
	<g>
		<path class="st0" d="M147.4,218.4c-2,1.3-4,2.5-6,3.6c-2,1.1-4,2.2-6,3.2c-4.1,1.8-6.9,2.7-8.2,2.7c-0.7,0-1.5-0.2-2.3-0.6
			c-0.8-0.4-1.6-0.9-2.3-1.4c-0.7-0.6-1.3-1.1-1.7-1.7c-0.5-0.6-0.7-1.2-0.7-1.7c0-1.9,2.4-3.2,7.1-3.8c3.2-0.4,6.4-1.2,9.5-2.3
			c3.1-1.1,6.2-2.5,9.4-4.2c6.2-3.6,10.1-6.6,11.6-9.1c1-1.8,1.8-2.9,2.4-3.3c0.6-0.4,1.1-0.4,1.4-0.1c0.4,0.4,0.6,0.9,0.8,1.6
			c0.2,0.7,0.3,1.3,0.5,1.7c0,2.1-2.8,5.5-8.3,10.1l0.5,37.5c0,6.9-0.4,11.3-1.2,13.1c-0.8,1.8-1.8,2.7-2.9,2.7
			c-1.1,0-2-0.5-2.6-1.6c-0.7-1.1-1-2.5-1-4.3l0.5-32.3C147.9,223.1,147.7,219.8,147.4,218.4z M188.1,220.1
			c4.8-0.6,10.2-2.8,16.2-6.6c1.9-1.2,3.4-1.8,4.4-1.8c1,0,2.1,0.6,3.3,1.7c1.2,1.1,1.8,2.5,1.8,4.2c0,1.7-1.2,3.1-3.6,4.1
			c-2.3,1-9.9,1.8-22.7,2.4c-0.2,1.7-0.4,3.4-0.5,5.1c-0.1,1.7-0.2,3.4-0.2,5.1c0,6.4,1.3,10.6,3.9,12.4c2.5,1.8,7.3,3.5,14.4,5
			c6.9,1.5,13.6,2.3,20,2.3c6.4,0,12.3-1.6,17.8-4.7c2.5-1.5,4.1-2.3,4.6-2.3c0.6,0,0.8,0.3,0.8,0.8c0,1.1-1,3.1-2.9,5.9
			c-1.8,2.9-4.2,5.5-7,7.7s-5.7,3.3-8.4,3.3c-3.6,0-9.9-1.2-18.9-3.5c-4.4-1.1-8.3-2.3-11.7-3.6c-3.4-1.3-6.3-2.5-8.7-3.9
			c-4.8-2.8-7.8-5.3-8.9-7.4c-1.2-2.2-1.8-5.8-1.8-10.7c0-8.6,0-15.2,0.2-20c0.1-4.8,0.3-7.7,0.5-8.7c0.5-2,1.8-3,3.9-3
			c1.6,0,3,0.7,4.1,2.2c1.1,1.5,1.7,3,1.7,4.6c0,1.4-0.3,2.6-0.8,3.6c-0.2,0.4-0.5,1.1-0.8,2C188.5,217.3,188.3,218.6,188.1,220.1z
			 M210.3,177.2c8.9-0.3,14.6-0.5,17.1-0.5c2.5,0,3.8,0.5,3.8,1.4c0,1-0.7,2.4-2.1,4.3c-0.9,1.4-2,2.2-3.2,2.5
			c-1.3,0.3-2.7,0.2-4.3-0.1c-1.6-0.3-3.5-0.7-5.6-1.1c-2.1-0.5-4.4-0.7-7-0.7c-3,11.1-5.4,16.6-7.3,16.6c-0.9,0-1.4-1-1.4-2.9
			c0-1,0-2.1,0.2-3.4c0.1-1.3,0.3-2.7,0.5-4.3l1.5-11.8c0-2.3,2.2-14.3,3.2-14.2c1.2,0,2.7,0.5,4.4,1.5
			C211.8,165.7,210.8,175.5,210.3,177.2z"/>
	</g>
	<g>
		<path class="st0" d="M297.9,141.9c2.8,0,3.9,2.6,2,5c-1.2,1.5-2.9,2.8-4.6,3.6c-3.1,1.6-6.4,2.7-9.6,4.1c-1,0.5-2.1,1.4-2.5,2.4
			c-3.7,9.3-9.5,17-16,24.3c-3.2,3.6-6.5,7.3-10,11.2c2.5-0.5,4.6-1.3,6.6-1.3c1.2,0,2.3,1.1,3.4,1.7c-0.8,1-1.4,2.5-2.4,2.9
			c-2.6,1.1-5.3,1.8-7.9,2.7c-2.5,0.9-5,1.9-6,5.1c0.6-0.3,1.3-0.6,1.9-1c7-4.2,14.4-6.9,22.3-8.1c0.7-0.1,1.7-0.6,1.9-1.2
			c1.8-4.1,5-6.2,8.8-7.6c2.1-0.8,4.4-1.3,6.6-1.9c3.6-1,7-2.5,9.1-6.2c3.2,3.1,3,5.7-1.2,11.1c2.3-0.1,4.3-0.1,6.1-0.2
			c-0.7,2.9-1.6,3.6-11.4,8.6c3.6-0.2,6.4-1,9-2.9c1.3-1,2.7-2.2,4.2-2.4c1.4-0.2,3.6,0.1,4.3,1.1c1.2,1.8-0.6,3.1-2.1,4.1
			c-0.3,0.2-0.6,0.4-1,0.6c0.8,0.7,1.9,1.2,2.2,2c0.4,1.2,0.6,2.8,0.1,3.8c-0.4,0.8-2.3,1.6-3.1,1.3c-1.9-0.6-3.6-1.9-5.4-2.9
			c-2.6-1.4-5.1-2.7-8-3.7c4.2,3.5,8.7,6.7,10.7,12.6c-3.3-0.5-6.4-1-10.1-1.6c1.7,2.9,3.2,5.2,4.5,7.6c1.6,3,0.1,6.6-3.5,8.5
			c-1.6-4.7-5.5-7-8.9-9.9c-4.4-3.7-8.5-7.7-10.1-13.7c-0.4-1.7-0.7-3.4-1.2-5.4c-8.1,0.5-15.4,3.8-22.7,7.5
			c4.4-0.3,8.8-0.4,12.5,2.1c1.5,0.9,2.7,2.5,3.5,4c0.4,0.8,0.1,3-0.6,3.4c-1,0.7-2.6,0.6-3.8,0.3c-0.8-0.1-1.4-1.1-2.1-1.7
			c-3-2.4-6.3-4-10.1-4.4c-3.6-0.3-5.9,0.9-7.4,4.6c-5.6,13.9-7.4,28-2.1,42.1c0.1,0.3,0.1,0.7-0.4,1.4c-0.6-0.9-1.4-1.7-1.9-2.6
			c-3.5-6.5-3.4-13.7-2.5-20.9c0.6-4.6,1.1-9.3,1.4-13.9c0.4-5.2-0.7-10.1-2.8-14.7c-2.8-6.2-5.8-7.4-12.1-4.7
			c-1.7,0.7-3.4,1.6-5.1,2.4c-1.9,0.9-4.1,2.1-5.6-0.2c-1.5-2.4,0.4-4,1.9-5.6c-2.7-2-2.7-2.2-1.2-5.6c0.2-0.4,0.1-1,0-1.4
			c-0.4-1.9-0.3-3.9,1.5-4.6c1.2-0.5,3.2,0,4.2,0.8c1.8,1.4,3.2,3.4,4.8,5.2c0.4,0.4,0.9,0.7,1.6,1.2c-0.2-2-0.5-3.7-0.6-5.5
			c-0.1-2,0.5-3.8,2.6-4.3c2.2-0.6,3.2,1,3.8,2.8c0.4,1.2,0.4,2.5,0.4,3.8c0,1.8-0.3,3.7-0.3,5.5c0,1.1,0.3,2.5,1,3.1
			c4.4,4,6.6,9.3,8,15.5c1.9-3.7,3.3-7.4,5.5-10.5c3.9-5.5,8.1-10.8,12.4-15.9c2.3-2.8,3-4.4,1.4-7.6c-1.1-2.2-2.6-4.2-4.1-6.1
			c-1.7-2.2-1.9-4.1-0.4-5.6c1.5-1.4,3.6-1.2,5.2,0.8c1.4,1.8,2.5,3.9,4.1,5.8c-0.7-2.1-1.5-4.1-2.1-6.2c-0.6-1.9-1.1-3.8-1.3-5.8
			c-0.1-0.9,0.7-2.5,1.4-2.7c0.9-0.2,2.4,0.3,3,1c2.8,3.4,3.3,7.6,2.6,12.1c-0.2,1.1-0.4,2.2-0.4,3.3c6.5-8.8,12.2-17.9,14-29
			c1-5.7,0.3-11.1-3.2-15.6c-3.5-4.6-8.2-5.9-13.6-3.8c-3.7,1.4-6.7,3.8-9.1,7.1c4,4.1,4.5,8.6,1.8,13.9c-1.8,3.6-3.4,7.3-1.5,11.3
			c0.6,1.3,1.4,2.5,2.1,3.7c-4,2.4-8.5,0-10.8-6.1c-1.9,1.8-3.7,3.4-5.7,5.2c-2-2-1.9-5.1-2.2-8c-0.2,0-0.5,0-0.7,0.1
			c-0.1,2.5-0.3,5.1-0.4,7.6c-0.1,1.2,0,2.5-0.2,3.7c-0.4,2.1-1.6,3.5-3.8,3.5c-2.2,0-3.2-1.4-3.7-3.4c-0.1-0.3-0.1-0.7-0.1-1.1
			c-1.1,0-2.2,0.1-3.2,0c-1.8-0.1-2.8-1.3-3.2-3.1c-0.3-1.9,0.5-3.4,2.1-4.1c2-0.9,4.1-1.5,6.2-2.2c1.2-0.4,2.4-0.9,3.5-1.7
			c-2,0.1-4,0.2-6,0.3c-0.1-0.3-0.1-0.5-0.2-0.8c1.5-1.6,2.9-3.2,4.8-5.3c-4.4,0.2-7.1-1.5-8.5-5.2c-0.8-2.1-0.4-3.6,1.2-5.7
			c3.6,3.9,7.2,2,10.9-0.4c3.1-2,6.3-3.7,9.7-5.1c2.2-0.9,4.7-0.6,6.5,1.7c5-5.5,10.4-10.3,18-8.6c7.8,1.7,10.1,8.5,11.5,16.5
			c1-1.3,1.6-2.1,2.2-3c2.7-3.6,5.7-6.7,10.1-7.6c2.1-0.4,4.3-0.8,5.4,1.8c0.8,1.9-0.1,4.1-2.7,5.6c-4.3,2.6-8.7,4.9-12.9,7.4
			c-1.1,0.7-1.9,2-2.9,3.1c0.2,0.2,0.4,0.4,0.5,0.6 M278.9,196.9c0.3,1.6,0.3,3,0.7,4.3c1.4,4.9,4.4,8.6,8,11.9
			c3.5,3.1,6.9,6.2,10.4,9.3c1.8-2.2,1.6-4.1-0.7-6.1c-0.4-0.4-1-0.9-1-1.3c0.1-3.5-1.9-4.5-3.9-4.4c-1.8-2.3-2.9-4.6-4.7-5.8
			c-1.4-0.9-2.3-1.7-2.7-3.4C284.3,198.1,282.4,196.8,278.9,196.9z M230.2,139.2c-0.2,0.2-0.4,0.5-0.6,0.7c1,1.1,1.8,2.6,3,3.3
			c2.9,1.8,9.3,0.5,11.5-2.4c1.1-1.5,2-1.7,3.4-1c0.5,0.2,1.1,0.3,1.7,0.4c1.9,0.2,3.6-0.5,4.4-2.4c0.5-1.2,0.8-3.5,0.3-3.8
			c-1.4-0.8-3.3-1.4-4.7-0.9c-2.7,1-5.4,2.6-7.9,4.2C237.8,139.6,234.2,140.9,230.2,139.2z M256.5,160.1c-1.9-4.8-0.7-9,1.2-13.2
			c0.7-1.4,1.3-2.9,1.6-4.5c0.7-3.4-0.5-6.1-2.5-6.8c-1.5,2-2.8,3.9-4.3,5.6c-1.1,1.2-1.5,2.4-0.7,3.8c0.4,0.8,1.1,1.5,1.6,2.1
			c-4.3,3.5-4.3,4.3-1,7.1C251.6,157.9,252.8,159.7,256.5,160.1z M301.9,180.2c-3.4,4.6-8,5.2-12.3,6.7c-2.3,0.8-4.6,1.7-6.8,2.9
			c-1.7,1-3.5,2.3-3.4,4.8c3.5,1.2,4.8-0.9,7.8-2.1c3.2-1.3,6.6-2.6,9.7-4.2c0.6-0.3,1-0.9,1.5-1.2
			C301.2,185.8,302.1,184.4,301.9,180.2z M303.4,208.7c-4.9-6-10.6-9.7-17.8-11.4c1,3,1.3,5.9,4.4,6.9c0.8,0.3,1.3,1.5,2,2.1
			c0.5,0.5,1.1,1.1,1.7,1.2C296.8,207.9,299.8,208.2,303.4,208.7z M235.3,160.5c-0.2,0.6-0.5,0.9-0.4,1.2c0.1,1.2,0.2,2.5,0.5,3.6
			c0.1,0.3,1.6,0.5,1.7,0.3c0.7-1,1.4-2.2,1.6-3.3c0.4-2.6,0.5-5.2,0.7-7.8c-3.1,1.2-6.2,2.3-9.2,3.6c-0.8,0.4-1.2,1.6-1.9,2.4
			c1,0.4,1.9,1.2,2.9,1.2C232.4,161.7,233.7,161,235.3,160.5z M288,140.8c2.6-1.1,6.1-2.5,9.5-4.1c1.4-0.7,2.7-1.9,3.9-3
			c0.4-0.4,0.7-1.4,0.5-1.8c-0.2-0.4-1-0.8-1.6-0.8C295.9,131.2,288.8,137.6,288,140.8z M303.4,191.2c-0.1-0.2-0.1-0.4-0.2-0.7
			c-1.8-0.1-3.7-0.7-5.4-0.2c-2.5,0.8-4.7,2.3-7.1,3.5c-0.6,0.3-1.3,0.2-1.9,0.4c-1,0.3-2,0.7-3,1c0.1,0.3,0.2,0.5,0.2,0.8
			C292.3,196.2,298.1,195.1,303.4,191.2z M220.7,190.5c-0.8,0-1.4-0.1-1.9,0.1c-0.9,0.3-2.6,0.9-2.6,1.3c0,1.9,1.6,1.6,2.8,1.5
			c2.5-0.3,4.9-0.7,7.7-1.1c-2.3-2.3-4.4-4.5-6.7-6.5c-0.5-0.4-1.6,0-2.5,0.1c0.1,0.8,0.1,1.9,0.5,2.5
			C218.7,189.1,219.7,189.7,220.7,190.5z M284.5,153.1c3.9-1.8,7.3-3.3,10.6-4.9c1-0.5,2-1,2.8-1.8c0.5-0.5,0.6-1.3,0.9-2
			c-0.7-0.3-1.5-1-2.1-0.8C291.7,145,287.7,148,284.5,153.1z M301.6,198.7c1.3,0.9,3.3,2.5,5.5,3.8c0.6,0.4,1.7-0.1,2.6-0.2
			c-0.1-0.9,0-1.9-0.5-2.5c-0.7-0.9-1.7-1.3-2.7-2.1c1-0.6,2-1,2.7-1.7c0.7-0.6,1-1.5,1.6-2.3c-0.8,0.1-1.8-0.1-2.5,0.3
			C305.8,195.6,303.5,197.4,301.6,198.7z M230.3,195.4c-4.9-1.7-8.9-1.2-12.6,1.7c-0.7,0.6-1,1.8-1.5,2.7c0.9,0,1.9,0.3,2.7,0
			C222.5,198.5,226,197.1,230.3,195.4z M249.1,144.6c-3.7,3.5-5.5,9.1-4.4,12c1.5-0.8,3.1-1.6,4.6-2.3c-1.8-3.3-1.7-4,0.8-7.4
			C249.8,146.1,249.5,145.4,249.1,144.6z M248.3,142.3c-3.7-0.9-5.3,3.4-8.4,3.6c-1.1,0.1-2.2,2.8-3.8,5
			C241.4,149.2,245.5,147.2,248.3,142.3z M264.9,179.3c1.3-3.9-0.2-6.9-2.1-9.7c-0.8-1.2-1.9-2.4-4-1.3
			C260.8,172,262.7,175.5,264.9,179.3z M268.7,173.9c0.5-4.6,0.5-8.5-1.1-12.2c-0.3-0.7-1.2-1.2-1.8-1.7c-0.2,0.9-0.7,1.9-0.5,2.7
			C266.3,166.2,267.4,169.7,268.7,173.9z M256.2,206c3.1,1.8,6.1,3.5,9.1,5.1c0.7,0.4,1.6,0.2,2.4,0.3c-0.4-0.8-0.5-1.8-1.1-2.3
			C263.7,206.5,260.2,205.7,256.2,206z M231,193.5c0.3-0.1,0.7-0.1,1-0.2c0.1-2.7,0.3-5.5,0.1-8.2c0-0.7-1.2-1.3-1.8-2
			c-0.4,0.9-1.3,1.8-1.2,2.6C229.5,188.3,230.3,190.9,231,193.5z M265.6,193.9c0-0.2-0.1-0.5-0.1-0.7c-3.4-1.2-8.6,1-10.9,4.6
			C258.4,196.4,262,195.2,265.6,193.9z"/>
	</g>
	<g>
		<path class="st0" d="M93.4,194.4l0.5,0c0.3,0,0.6,0.1,0.7,0.2c0.1,0.1,0.2,0.3,0.2,0.6c0,0.3-0.1,0.5-0.2,0.6
			c-0.1,0.1-0.3,0.2-0.6,0.2l-5.7,0c-0.3,0-0.5-0.1-0.6-0.2s-0.2-0.3-0.2-0.6c0-0.3,0.1-0.5,0.2-0.6c0.2-0.1,0.4-0.2,0.8-0.2l0.4,0
			l0.7,0l0-10.4l-0.7,0c-0.6,0-1-0.1-1.1-0.2c-0.2-0.1-0.2-0.3-0.2-0.7c0-0.3,0.1-0.5,0.2-0.6c0.1-0.1,0.3-0.2,0.6-0.2l10.2,0
			c0.3,0,0.5,0.1,0.6,0.2c0.1,0.2,0.2,0.4,0.2,0.7l0,3c0,0.3-0.1,0.5-0.2,0.6c-0.1,0.1-0.3,0.2-0.6,0.2c-0.3,0-0.5-0.1-0.7-0.3
			c-0.1-0.2-0.2-0.6-0.2-1.1l0-1.7l-6.3,0l0,3.9l3.1,0l0-0.3c0-0.6,0.1-0.9,0.2-1.1c0.1-0.2,0.3-0.3,0.6-0.3c0.2,0,0.4,0.1,0.5,0.2
			c0.1,0.1,0.2,0.4,0.2,0.7l0,2.9c0,0.4-0.1,0.7-0.2,0.8c-0.1,0.1-0.3,0.2-0.5,0.2c-0.3,0-0.5-0.1-0.6-0.3c-0.1-0.2-0.2-0.6-0.2-1.1
			l0-0.3l-3.1,0l0,5.1L93.4,194.4z"/>
		<path class="st0" d="M109.9,182.7l-2,0c-0.7,0-1.2-0.1-1.4-0.2c-0.2-0.1-0.3-0.3-0.3-0.7c0-0.3,0.1-0.5,0.2-0.6
			c0.2-0.1,0.4-0.2,0.7-0.2l3.8,0c0.2,0,0.4,0,0.5,0.1c0.1,0.1,0.2,0.2,0.2,0.3l0,13l3.6,0c0.3,0,0.5,0.1,0.6,0.2
			c0.1,0.1,0.2,0.3,0.2,0.6c0,0.3-0.1,0.5-0.2,0.7c-0.1,0.1-0.4,0.2-0.7,0.2l-8.5,0c-0.3,0-0.5-0.1-0.7-0.2
			c-0.2-0.1-0.2-0.3-0.2-0.6c0-0.3,0.1-0.5,0.2-0.6c0.2-0.1,0.4-0.2,0.7-0.2l3.2,0L109.9,182.7z"/>
		<path class="st0" d="M133.9,190.9c0,1.6-0.6,3-1.7,4c-1.1,1-2.6,1.6-4.4,1.6c-1.8,0-3.2-0.5-4.4-1.6c-1.1-1.1-1.7-2.4-1.7-4.1
			c0-1.6,0.6-3,1.7-4c1.1-1,2.6-1.6,4.4-1.5c1.8,0,3.2,0.5,4.4,1.6C133.3,187.9,133.9,189.2,133.9,190.9z M127.8,194.8
			c1.2,0,2.2-0.4,2.9-1.1c0.8-0.7,1.1-1.7,1.1-2.9c0-1.2-0.4-2.1-1.1-2.9c-0.8-0.8-1.7-1.1-2.9-1.1s-2.1,0.4-2.9,1.1
			s-1.1,1.7-1.1,2.9c0,1.2,0.4,2.1,1.1,2.9C125.6,194.5,126.6,194.8,127.8,194.8z"/>
		<path class="st0" d="M144.9,190.4l-1.5,5.5c-0.1,0.3-0.2,0.5-0.3,0.6c-0.2,0.1-0.4,0.2-0.7,0.2c-0.3,0-0.5-0.1-0.6-0.2
			s-0.3-0.4-0.4-0.8l-2.6-8.4l-0.1,0c-0.3,0-0.6-0.1-0.7-0.2c-0.1-0.1-0.2-0.3-0.2-0.6c0-0.3,0.1-0.5,0.2-0.6s0.4-0.2,0.7-0.2l3.1,0
			c0.4,0,0.7,0.1,0.8,0.2c0.1,0.1,0.2,0.3,0.2,0.6c0,0.2,0,0.3-0.1,0.5c-0.1,0.1-0.2,0.2-0.3,0.2c-0.1,0-0.3,0.1-0.5,0.1
			s-0.4,0-0.6,0l-0.7,0l2,7l1.5-5c0.1-0.3,0.2-0.5,0.4-0.6c0.2-0.1,0.4-0.2,0.7-0.2c0.3,0,0.5,0.1,0.7,0.2c0.2,0.2,0.3,0.4,0.4,0.8
			l1.4,4.8l1.9-6.9l-0.3,0l-0.5,0c-0.5,0-0.9-0.1-1.1-0.2c-0.2-0.1-0.3-0.3-0.3-0.6c0-0.3,0.1-0.5,0.2-0.6c0.1-0.1,0.4-0.2,0.8-0.2
			l3.1,0c0.2,0,0.4,0.1,0.5,0.2s0.2,0.3,0.2,0.6c0,0.3-0.1,0.5-0.2,0.6c-0.1,0.1-0.4,0.2-0.8,0.2l-2.6,8.7c-0.1,0.3-0.2,0.5-0.4,0.6
			c-0.2,0.1-0.4,0.2-0.7,0.2c-0.3,0-0.5-0.1-0.7-0.2c-0.2-0.2-0.3-0.4-0.4-0.8L144.9,190.4z"/>
		<path class="st0" d="M158.2,191.5c0.1,1.1,0.4,2,1.1,2.6c0.7,0.6,1.6,0.9,2.8,0.9c0.9,0,1.9-0.2,2.9-0.7c1.1-0.5,1.7-0.7,1.9-0.7
			c0.2,0,0.4,0.1,0.6,0.2c0.2,0.1,0.2,0.3,0.2,0.5c0,0.2-0.1,0.4-0.2,0.6c-0.2,0.2-0.4,0.4-0.8,0.5c-0.8,0.4-1.6,0.7-2.4,0.9
			c-0.8,0.2-1.6,0.3-2.4,0.3c-1.8,0-3.2-0.5-4.2-1.5c-1.1-1-1.6-2.4-1.6-4c0-1.7,0.6-3.1,1.7-4.1c1.1-1.1,2.6-1.6,4.4-1.6
			c1.6,0,3,0.5,4,1.5c1.1,1,1.6,2.2,1.6,3.6c0,0.4-0.1,0.7-0.3,0.9c-0.2,0.1-0.7,0.2-1.5,0.2l-0.2,0L158.2,191.5z M158.3,190l7.5,0
			c-0.1-0.9-0.5-1.7-1.1-2.2c-0.6-0.6-1.4-0.8-2.4-0.8c-1,0-1.9,0.3-2.6,0.8C159,188.3,158.5,189,158.3,190z"/>
		<path class="st0" d="M178.2,194.7l3.8,0c0.3,0,0.5,0.1,0.7,0.2c0.1,0.1,0.2,0.3,0.2,0.6c0,0.3-0.1,0.5-0.2,0.7
			c-0.1,0.1-0.4,0.2-0.7,0.2l-7.6,0c-0.3,0-0.5-0.1-0.7-0.2s-0.2-0.3-0.2-0.6c0-0.3,0.1-0.5,0.2-0.6c0.2-0.1,0.4-0.2,0.7-0.2l2,0
			l0-7.4l-0.8,0c-0.7,0-1.2-0.1-1.4-0.2c-0.2-0.1-0.3-0.3-0.3-0.6c0-0.3,0.1-0.5,0.2-0.6c0.2-0.1,0.4-0.2,0.7-0.2l2.6,0
			c0.2,0,0.4,0,0.5,0.1c0.1,0.1,0.2,0.2,0.2,0.4l0,2c0.7-0.9,1.5-1.6,2.3-2c0.8-0.4,1.7-0.7,2.6-0.7c0.7,0,1.2,0.1,1.7,0.4
			c0.4,0.3,0.6,0.6,0.6,1.1c0,0.3-0.1,0.5-0.3,0.8c-0.2,0.2-0.4,0.3-0.7,0.3c-0.2,0-0.5-0.1-0.9-0.4c-0.4-0.2-0.8-0.4-1.1-0.4
			c-0.6,0-1.2,0.2-1.9,0.6c-0.7,0.4-1.4,1.1-2.2,2L178.2,194.7z"/>
	</g>
</g>
<path class="st0" d="M320.2,295c0-1.3,70.1,0,70.1,0"/>
<path class="st0" d="M8.9,295c0-1.3,70.1,0,70.1,0"/>
</svg>
